<svg xmlns="http://www.w3.org/2000/svg" viewBox="0 0 500 500"><g id="freepik--background-complete--inject-5"><path d="M406.17,310a30.73,30.73,0,0,0-.93,13.38c1.4,9.37,8.45,16.8,10,26-.19,1.11-.42,2.23-.72,3.35a0,0,0,0,1,0,.05,0,0,0,0,0,0,0h0v0a.18.18,0,0,0,.09.1l.17-.38c.12-.24.22-.47.31-.7s.28-.66.4-1c0,0,.08-.15.08-.19,3.44-9.48.28-20-1.32-29.61-.92-5.51-.53-11.06-1.35-16.53-.2-1.31-.19-3.79-2.07-3.29C408.67,301.85,406.71,308.26,406.17,310Z" style="fill:#ebebeb"></path><path d="M407.56,318.11c-.6,11.4,9.92,21.37,7.47,32.76-.07.33-.15.64-.24,1s-.12.44-.19.66h0l-.1.27a0,0,0,0,1,0,.05,0,0,0,0,0,0,0h0v0a.18.18,0,0,0,.09.1h0a.09.09,0,0,0,.09-.07c.13-.34.25-.68.35-1a13.48,13.48,0,0,0,.58-2.52s0,0,0,0a36.41,36.41,0,0,0-.23-15.26c-1.3-6.47-3-12.75-4.13-19.29-.15-.81-.15-4-1.45-3.57C408.19,311.78,407.63,316.79,407.56,318.11Zm.56-1.7c.1-.64.92-4.92,2-4.48.64.27.71,3.51.81,4,.38,1.77.76,3.52,1.14,5.28.81,3.71,1.64,7.41,2.44,11.12A48.79,48.79,0,0,1,415.77,346C415.18,336,406.46,326.77,408.12,316.41Z" style="fill:#fff"></path><path d="M403.44,419.5c0,.15.13.36.33.23,8.64-5.56,19.41-1,28.35-6a45.85,45.85,0,0,0,9.61-7.67,37.06,37.06,0,0,0,5.85-7c.21-.35,1.3-1.76,1.13-2.46-1.37-5.32-15.21,3.69-17.53,5-9.05,4.93-17.32,9.44-25.25,15.76-.83.65-1.65,1.33-2.47,2A.12.12,0,0,0,403.44,419.5Z" style="fill:#ebebeb"></path><path d="M403.44,419.5l.94-.59c5.94-2.85,12.55-3.86,18.94-5.48a35.55,35.55,0,0,0,16.73-9c.84-.82,4.35-4,3.32-5.58-.93-1.43-4.47,1.33-5.32,1.82-6.43,3.6-12.72,7.25-19.42,10.35-4.28,2-8.62,4-12.7,6.36-.83.65-1.65,1.33-2.47,2A.12.12,0,0,0,403.44,419.5Zm4-2.41c4.73-2.64,9.69-4.84,14.61-7.18q5.07-2.39,9.92-5.2c1.77-1,3.53-2.08,5.31-3.09.9-.51,1.79-1,2.69-1.49.45-.25,1.94-1.11,2.31-.42,1,1.85-8.9,11.27-21.21,13.7A78.11,78.11,0,0,0,407.47,417.09Z" style="fill:#fff"></path><path d="M417.81,403.14a.08.08,0,0,0,0,.12.09.09,0,0,0,.13,0l.54-.52c.65-.65,1.28-1.3,1.9-2l.33-.37s.08,0,.1,0c6.91-7.05,17.36-9.21,23.25-17.39a39.41,39.41,0,0,0,5.53-12.14c.54-1.85,3.2-7.49.87-9-1.81-1.14-4.65,1.33-5.83,2.39-3.76,3.33-6.42,8-9,12.23s-4.9,8.41-7.34,12.61a81.9,81.9,0,0,1-7.72,10.8Q419.19,401.52,417.81,403.14Z" style="fill:#ebebeb"></path><path d="M417.81,403.14a.08.08,0,0,0,0,.12c.57-.59,1.13-1.19,1.7-1.77-.34.42-.69.83-1,1.24.65-.65,1.28-1.3,1.9-2,.3-.35.6-.71.92-1A109.78,109.78,0,0,1,434,389.17a23.29,23.29,0,0,0,5.73-5.69c2.9-4.14,7.38-13.9,6.52-15.37s-2.67,1.64-3.17,2.31c-4,5.48-7.28,11.43-11.6,16.71-2.9,3.54-5.85,7.05-8.79,10.57-.74.71-1.47,1.45-2.17,2.2Q419.19,401.52,417.81,403.14Zm27.8-34.68c.76.32-.4,2.94-.7,3.63a107.54,107.54,0,0,1-4.85,9.88c-1.9,3.37-4.62,5.6-7.74,7.79a81.34,81.34,0,0,0-7.46,5.92c2.92-3.3,5.81-6.64,8.51-10.11,2.24-2.88,4.18-6,6.16-9,1-1.53,2-3.06,3-4.54.29-.41,2.38-3.82,3.06-3.54" style="fill:#fff"></path><path d="M366.38,446.68a.07.07,0,0,0,.07.08.08.08,0,0,0,.09-.07c0-.22.09-.43.13-.65.16-.81.29-1.61.41-2.4l.06-.44a.21.21,0,0,0,.06-.08c1.52-8.67,8.12-15.53,8.33-24.52a35.5,35.5,0,0,0-2-11.72c-.54-1.64-1.43-7.13-3.88-7-1.91.08-2.75,3.33-3.09,4.7-1.09,4.35-.69,9.13-.49,13.56s.63,8.66,1,13a71.75,71.75,0,0,1-.24,11.83C366.64,444.17,366.51,445.42,366.38,446.68Z" style="fill:#ebebeb"></path><path d="M366.38,446.68a.07.07,0,0,0,.07.08c.11-.72.23-1.44.36-2.15-.05.48-.1,1-.14,1.43.16-.81.29-1.61.41-2.4,0-.42.09-.83.14-1.24a98.65,98.65,0,0,1,4-14.17,21.08,21.08,0,0,0,1.35-7.08c0-4.51-1.58-13.95-3-14.6s-1.14,2.56-1.17,3.31c-.19,6.05.41,12.08-.11,18.13-.35,4.07-.75,8.15-1.14,12.22-.19.9-.35,1.8-.49,2.71C366.64,444.17,366.51,445.42,366.38,446.68Zm1.43-9c.48-3.9.92-7.82,1.16-11.73.19-3.25.07-6.5,0-9.75-.05-1.63-.09-3.25-.07-4.87,0-.44-.17-4,.47-4.14s1.19,2.36,1.32,3c.6,3.19,1.13,6.47,1.41,9.71.3,3.45-.58,6.45-1.77,9.64A71.51,71.51,0,0,0,367.81,437.64Z" style="fill:#fff"></path><path d="M365.38,453.88a1.42,1.42,0,0,0,.67-.23c8.83-3.39,18.5-3.54,27.38-6.92a25.71,25.71,0,0,0,10.31-6.79c1.19-1.35,5.29-6,4.39-8.12-2.71-6.46-32.52,13.89-42.33,21.2a1.93,1.93,0,0,0-.44.31C365.06,453.61,365.1,453.86,365.38,453.88Z" style="fill:#ebebeb"></path><path d="M365.38,453.88c.65-.36,1.31-.73,2-1.08,2.15-.87,4.31-1.69,6.52-2.38,3.5-1.1,7.1-1.76,10.66-2.65a34,34,0,0,0,14.9-8c.91-.84,3.63-3.09,3-4.67-.54-1.43-2.77,0-3.56.36-11.2,5.35-22.11,11.5-33,17.54l-.57.29C365.06,453.61,365.1,453.86,365.38,453.88Zm5.2-2.85q6.39-3.48,12.79-6.9,5-2.69,10.05-5.32c1.66-.86,3.3-1.76,5-2.6.66-.33,3.21-1.63,3.45-.71s-1.52,2.64-1.84,3c-5,5.18-11.5,7.85-18.42,9.39A81.15,81.15,0,0,0,370.58,451Z" style="fill:#fff"></path><path d="M407.71,379.23a.39.39,0,0,0,0,.34.46.46,0,0,0,.39.27.59.59,0,0,0,.26,0,.19.19,0,0,0,.15-.06c4.17-4.08,10.54-7.88,14.83-11.79a45.26,45.26,0,0,0,8.28-10.44,61.37,61.37,0,0,0,6.1-13.58c.68-2.26,2.62-7.6.79-9.82-3.78-4.58-11.4,12.07-12.49,13.93C419.84,358.42,413.72,368.79,407.71,379.23Z" style="fill:#ebebeb"></path><path d="M407.66,379.57a.46.46,0,0,0,.39.27c.25-.35.49-.71.73-1.06,1.64-1.92,3.27-3.83,5-5.66,2.83-3,6.07-5.56,8.8-8.63,4.76-5.35,13.69-22.39,11.12-24.09-1.34-.88-3,2.63-3.48,3.45-1.92,3.29-3.41,6.79-5.38,10-2.05,3.43-4.3,6.73-6.54,10-3.47,5.09-6.95,10.15-10.36,15.28Zm3.43-4.13c3.08-4.49,6.12-9,9.17-13.53,2.1-3.12,4.18-6.26,6.06-9.53,1-1.83,2-3.71,2.92-5.6.46-.91.92-1.84,1.44-2.72s2.12-3.95,2.87-2.79-1.51,6.16-2,7.33c-.87,1.9-1.76,3.78-2.72,5.63a49.56,49.56,0,0,1-6.85,10.23c-2.76,3.05-6,5.63-8.77,8.66C412.47,373.88,411.77,374.65,411.09,375.44Z" style="fill:#fff"></path><path d="M357.69,387.52c7.67,8.35,20.05,10.66,24.57,25.27a.06.06,0,0,0,.11,0,0,0,0,0,0,0-.06c-.28-1.47-.61-2.94-1-4.4a64.06,64.06,0,0,0-10.61-21.91,48,48,0,0,0-10.37-10.15c-2-1.43-6.39-5.09-8.92-4.52C346,373,356.29,386,357.69,387.52Z" style="fill:#ebebeb"></path><path d="M358.15,382.39c3.09,6.06,9.22,10,13.91,14.71a55.53,55.53,0,0,1,8.49,10.74q.94,2.46,1.82,5a0,0,0,0,0,0-.06c-.28-1.47-.61-2.94-1-4.4-.05-.08-.09-.16-.14-.23a66.89,66.89,0,0,0-6.37-12.75,70,70,0,0,0-12.65-15c-.85-.76-3.64-4.06-5.08-3.22S357.71,381.55,358.15,382.39Zm-.52-4.71c1.05-.39,6,4.5,7.91,6.49a70.38,70.38,0,0,1,10.69,14.33,66.36,66.36,0,0,1,3.36,7,54.28,54.28,0,0,0-5.55-6.94c-4.23-4.54-9.52-8.17-13.35-13a19.14,19.14,0,0,1-2.55-4.14C357.88,380.75,356.67,378,357.63,377.68Z" style="fill:#fff"></path><path d="M367.21,342a51.92,51.92,0,0,0-.09,12.27,51.19,51.19,0,0,0,8,22.12c.08.12.15.24.24.36.06.39.14.78.23,1.16l.06.27,0,.05h0a.09.09,0,0,0,.17-.07c0-.48,0-1,0-1.45.15-9.87,2-19.55.66-29.44-.3-2.16-1.71-16.29-6.64-13.88C367.61,334.54,367.45,340,367.21,342Z" style="fill:#ebebeb"></path><path d="M369.18,344c-.35,6.09,1.25,12.63,2.5,18.56a140.13,140.13,0,0,0,3.46,13.85c.11.37.24.75.36,1.11,0,.14.07.27.11.41s.05.21.08.32h0a.09.09,0,0,0,.17-.07c0-.48,0-1,0-1.45l-.3-1.08a114,114,0,0,1-.6-16.23c0-2.94,0-5.87-.28-8.8a39.15,39.15,0,0,0-1.26-8.56c-.38-1.18-1.18-3.51-2.84-2.65C369.21,340.14,369.25,342.72,369.18,344ZM372.8,342c1.05,3.2,1.2,7,1.43,10.3s.19,6.43.16,9.63a100.67,100.67,0,0,0,.24,10.27c-1.17-4.29-2.3-8.58-3.13-13-.65-3.44-1.23-6.9-1.63-10.37a25.65,25.65,0,0,1-.17-5.4,13.36,13.36,0,0,1,.26-1.9C370.39,339.53,372.34,340.5,372.8,342Z" style="fill:#fff"></path><path d="M427.86,316.36c0,.16-.06.31-.1.47a.29.29,0,0,0,.37.33.29.29,0,0,0,.21-.23c.07-.28.14-.57.2-.85h0c.06-.24.11-.46.16-.69.22-.39.44-.76.69-1.13,2.62-4,7.16-7.31,10.24-10.7a62.31,62.31,0,0,0,7.61-9.88,30.73,30.73,0,0,0,4.41-11.79c.14-1.13.68-4-.74-4.71-1.79-.9-4.52,2.53-5.49,3.43a51.32,51.32,0,0,0-8.54,10.6C432.09,299,429.63,307.49,427.86,316.36Z" style="fill:#ebebeb"></path><path d="M428.66,314.39a17.31,17.31,0,0,0-.8,2c0,.16-.06.31-.1.47a.29.29,0,0,0,.37.33,3.38,3.38,0,0,1,.11-.34l.3-.74h0c.27-.62.55-1.22.85-1.82a41.27,41.27,0,0,1,3.84-6.1c2.52-3.36,5.15-6.62,7.54-10.07,1.2-1.73,10.41-15.05,6.79-16.32-.68-.25-1.34.67-1.71,1a27.65,27.65,0,0,0-3.3,4.46c-2.31,3.61-4.49,7.32-6.54,11.08A119.14,119.14,0,0,0,428.66,314.39Zm6.58-13.75q2.64-5,5.57-9.82c.95-1.57,1.89-3.15,2.93-4.67.51-.75,3.1-4.13,3.81-3.69,1,.65-1.43,5.91-2.18,7.33-.86,1.62-1.79,3.19-2.77,4.74-2,3.11-4.14,6.08-6.37,9-2,2.59-4.33,5.34-6.17,8.32A118.6,118.6,0,0,1,435.24,300.64Z" style="fill:#fff"></path><path d="M396.22,362.7c0,.16.11.31.15.46a.29.29,0,0,0,.49.1.32.32,0,0,0,.07-.3c-.09-.28-.17-.57-.26-.85h0l-.21-.68q0-.66,0-1.32c.28-4.74,2.52-9.92,3.49-14.39a62.12,62.12,0,0,0,1.62-12.37,30.77,30.77,0,0,0-2.1-12.41c-.45-1.05-1.42-3.8-3-3.7-2,.12-2.65,4.46-3,5.71a51.66,51.66,0,0,0-2.07,13.47C391.16,345.56,393.31,354.14,396.22,362.7Z" style="fill:#ebebeb"></path><path d="M395.93,360.6a18,18,0,0,0,.29,2.1c0,.16.11.31.15.46a.29.29,0,0,0,.49.1c0-.12-.06-.23-.08-.35s-.08-.53-.11-.8h0c-.08-.67-.14-1.33-.18-2a41,41,0,0,1,.26-7.21c.49-4.16,1.13-8.31,1.47-12.49.17-2.1,1.45-18.24-2.32-17.52-.71.13-.83,1.25-.95,1.76a27.61,27.61,0,0,0-.62,5.51c-.19,4.28-.21,8.58-.1,12.86A117.59,117.59,0,0,0,395.93,360.6Zm-1.21-15.2c-.15-3.76-.18-7.53-.11-11.29,0-1.83.05-3.68.19-5.51.06-.9.61-5.13,1.44-5.1,1.23,0,1.74,5.83,1.8,7.43.07,1.83,0,3.66,0,5.49-.14,3.67-.53,7.34-1,11-.41,3.23-1.07,6.79-1.17,10.29A120.37,120.37,0,0,1,394.72,345.4Z" style="fill:#fff"></path><path d="M374.67,369.34a228.29,228.29,0,0,0,5.2,25.35c1.75,6.46,3.51,13,3.76,19.74.3,8-2,17-6.1,24.67q3.53-3.94,7-8c4.7-5.52,9.37-11.18,12.71-17.65.33-.64.63-1.29.93-1.94a.17.17,0,0,1,0-.16,87.42,87.42,0,0,0,1.68-26,71.74,71.74,0,0,0-5.67-13c-2.36-4.29-4.61-8.45-5.87-13.21-.07-.27.31-.44.42-.16,2.4,6.29,7.34,12.42,10.24,19q-.24-1.62-.54-3.24c-1.89-10.34-5.47-20.73-1.68-31.06.12-.35.62-.11.51.23-3.56,11.51,2,24.19,3.71,35.63,1.23,8.5,1.65,17.67-.41,26.14a137.33,137.33,0,0,0,3.78-14.3c6.51-29,14-57.86,28.14-84.22.13-.26.55-.08.42.18-14.44,28.61-20.16,59.71-27.69,90.54-.08.35-.17.7-.26,1.05a58,58,0,0,1,9.07-11c.16-.16.43,0,.28.23-4.14,5.3-7.3,11.1-11,16.63a60.47,60.47,0,0,1-5.39,12.42,98.88,98.88,0,0,1-9.61,13.13c5.89-4.94,11.84-9.81,17.38-15.19a262.71,262.71,0,0,0,23.55-25.91c.11-.13.3,0,.2.17a220.42,220.42,0,0,1-23.44,28c-7.33,7.29-15.18,14.72-24,20.32-8.41,9.68-17.41,19.41-28,26.5a.46.46,0,0,1-.54-.75c2-1.74,3.86-3.51,5.75-5.29,1.83-4.1,4.38-7.86,6-12.11a66.8,66.8,0,0,0,3.9-15.43c.05-.39.62-.29.6.09-.44,7.22-2.06,16.11-5.92,23q4-4,7.92-8.12c6.91-10.55,11.41-23.09,9.9-35.72-.78-6.48-2.64-12.75-4.16-19.09a140.76,140.76,0,0,1-3.19-21.33A.25.25,0,0,1,374.67,369.34Z" style="fill:#ebebeb"></path><path d="M140,328.43c1.49,4.11,1.18,9.17,1,13.45a105.61,105.61,0,0,1-1.71,14.62c-.81,4.5-1.84,8.95-3,13.38l0,.12c-.07.29-.15.58-.22.87s-.09.72-.15,1.09a.23.23,0,0,1-.19.19.18.18,0,0,1-.23-.21l.06-.59c.72-8.31-4.08-15.89-4.37-24.12-.15-4.51.93-9,1.77-13.44.46-2.44.58-5.6,1.53-7.89.25-.61.31-1.27,1-1.59C137.62,323.32,139.5,327,140,328.43Z" style="fill:#ebebeb"></path><path d="M138.05,331.51c-1.3-1.08-2.07,1.9-2.33,2.72-1.71,5.48-2.67,12-1.69,17.69,1.07,6.24,2.2,12.49,1.74,18.81l-.18.62-.06.59a.18.18,0,0,0,.23.21c0-.13,0-.25.05-.38.18-.58.35-1.18.51-1.77l0-.12a119.89,119.89,0,0,0,2.19-12.95,84,84,0,0,0,1-18.33,40.68,40.68,0,0,0-.55-4.4C138.83,333.47,138.69,332,138.05,331.51Zm.74,3.7c.23,1.54.39,3.09.47,4.66a85,85,0,0,1-.94,16.09,116.79,116.79,0,0,1-2.29,13.8,48.25,48.25,0,0,0-.45-10.8c-.38-2.7-.94-5.36-1.35-8a30,30,0,0,1,.33-9.07,38.28,38.28,0,0,1,1.82-8.4c.21-.53.81-1.71,1.28-1.63C138.48,332,138.7,334.6,138.79,335.21Z" style="fill:#fff"></path><path d="M102.71,391.89s0,0,0,0" style="fill:#ebebeb"></path><path d="M136,449.28a.2.2,0,0,1,.1.25h0a.25.25,0,0,1-.17.16.25.25,0,0,1-.17,0c-5.09-2.57-9.94-6.66-15.83-7-4.61-.24-8.57.33-13-1.56a34.7,34.7,0,0,1-11.7-8.4,35.32,35.32,0,0,1-4-5.27c-.55-.9-2.37-3.15-2.11-4.31,1.18-5.4,17.22,4.21,19.35,5.51,9.43,5.74,19,12.19,26.89,20a.09.09,0,0,1,0,.09.15.15,0,0,1-.06.09C135.56,449,135.77,449.13,136,449.28Z" style="fill:#ebebeb"></path><path d="M136,449.28c-.2-.15-.41-.29-.62-.43a.15.15,0,0,0,.06-.09c-5.22-3.95-10.75-7.54-16.3-11a163.4,163.4,0,0,0-18.48-10.39c-.87-.39-4.52-2.57-5.28-1.16s3,4.65,3.83,5.37c4.75,4.25,11,6.2,17,8,3.9,1.15,7.72,2.24,11.21,4.39,2.93,1.81,5.64,3.95,8.55,5.77a.25.25,0,0,0,.17-.16c-1.49-1-2.93-2-4.36-3l4.36,3A.2.2,0,0,0,136,449.28Zm-13.13-8C117,439,110.74,438,105.11,435.1a24.94,24.94,0,0,1-7.26-5.39c-.39-.42-2.29-2.33-1.86-3.09.29-.51,1.81,0,2,0a45.7,45.7,0,0,1,4.85,2.17c5.49,2.8,10.83,6,16.06,9.22,2.91,1.8,5.76,3.68,8.58,5.6A29,29,0,0,0,122.84,441.25Z" style="fill:#fff"></path><path d="M112.78,337.42c.63,4.88-.35,10-1.68,14.66-3.08,10.85-9,20.93-10.92,32.12-.07.44-.14.88-.2,1.32.1.57,0,.43-.16-.25h0c-.81-3-3.64-16.1-2.35-25.51.82-5.88,2.84-11.43,4.87-17,1.16-3.17,2.29-6.34,3.48-9.49.38-1,.91-3.89,2.44-4.11C111.21,328.75,112.53,335.51,112.78,337.42Z" style="fill:#ebebeb"></path><path d="M107.65,338.4a1,1,0,0,0-1.31.34,4.9,4.9,0,0,0-.64,1.92l-.9,3.46c-2,7.94-4.81,16.05-5.58,24.26a68,68,0,0,0,.59,16.36v.53h0c.18.68.26.82.16.25.06-.44.13-.88.2-1.32,0-.61,0-1.22.06-1.84A49.77,49.77,0,0,1,103,370a125.78,125.78,0,0,0,5.6-23.42,24.2,24.2,0,0,0,.18-5.38C108.71,340.43,108.51,338.83,107.65,338.4Zm.72,2.56a8,8,0,0,1,.11,1.19,19.59,19.59,0,0,1-.06,2.54,56.36,56.36,0,0,1-.82,6.07,169.62,169.62,0,0,1-5.55,21,44.79,44.79,0,0,0-2.18,10.55,88.66,88.66,0,0,1-.46-9.06c0-7.74,2.19-15.07,4.1-22.51.47-1.83.95-3.68,1.42-5.52.23-.92.47-1.84.71-2.76l.35-1.39c.23-.92.1-1.31,1.13-1.59C108.39,339.17,108.19,339.89,108.37,341Z" style="fill:#fff"></path><path d="M120.51,382.78a60.6,60.6,0,0,1,3,11.14c1.26,7.61.09,16.41,2.09,24,.18.49.34,1,.48,1.51.06.19.11.37.15.56s-.14.16-.18.07l-.49-1h0l-.25-.51c-3.78-7.38-8.62-14.13-10.23-22.43-1-5.1-2.57-19.17.8-20.24C117.34,375.43,119.68,380.6,120.51,382.78Z" style="fill:#ebebeb"></path><path d="M117.44,383.53c-.8.38-.77,2-.82,2.61a31.8,31.8,0,0,0,.19,5.25,52,52,0,0,0,1.9,9.56,102.94,102.94,0,0,0,6.56,17.62l.25.51h0l.49,1c0,.09.21,0,.18-.07s-.09-.37-.15-.56c-2.48-6.51-3.52-13.35-4.38-20.27C121.47,397.61,120.21,382.22,117.44,383.53Zm2.52,6.24c.24,1.45.44,2.91.64,4.37.45,3.4.84,6.82,1.33,10.22a78.06,78.06,0,0,0,2.31,11,132.45,132.45,0,0,1-4.62-12.55,69.78,69.78,0,0,1-2.08-8.56,36,36,0,0,1-.49-4.76c0-.76-.35-5.17.56-5.55C118.75,383.46,119.86,389.15,120,389.77Z" style="fill:#fff"></path><path d="M152.68,367.76c1.86,2.29,1,6.85,0,9.25a21.8,21.8,0,0,1-7,8.43c-4.19,3.31-8.87,5.87-12.4,10s-2.37,2.83-4.83,8c-.05.1-.14.11-.22,0a1,1,0,0,1-.16-.83.68.68,0,0,0,0-.14c2.26-8.54,6.65-15.27,12.46-21.94,3.3-3.78,5.28-8.57,8.72-12.21C150.55,367,151.4,366.18,152.68,367.76Z" style="fill:#ebebeb"></path><path d="M150.71,372.25c-1.26-.59-2.84,2-3.49,2.88a54,54,0,0,1-6,7.64,65.38,65.38,0,0,0-5.86,6.26A42.83,42.83,0,0,0,129,400.47c-.33.69-.64,1.41-.91,2.15a1,1,0,0,0,.16.83l.09-.28a29.32,29.32,0,0,1,10.35-13.36c4.79-3.62,9.3-7.65,11.86-13.22C151,375.61,151.87,372.81,150.71,372.25Zm-.2,3.63a24.45,24.45,0,0,1-1.43,2.79,30,30,0,0,1-3.38,4.55,52.33,52.33,0,0,1-7.55,6.55,31.91,31.91,0,0,0-7.89,8.4,43.47,43.47,0,0,1,5.94-9.71c2.16-2.64,4.79-4.78,7-7.35,1-1.19,1.93-2.46,2.83-3.73l1.45-2.08c.43-.61,1.8-2.79,2.72-2.61C151.39,372.91,150.67,375.5,150.51,375.88Z" style="fill:#fff"></path><path d="M74.41,346.2C82,354.73,89,363.69,95.67,372.91a.3.3,0,0,1,0,.36l0,.06.13.18a.13.13,0,0,1,0,.17l0,0h0a.17.17,0,0,1-.13,0c-4.71-4.62-9.14-8.94-15.07-12-5.42-2.79-10.77-5.11-15.48-9.08-4-3.39-15.42-20.14-13.57-24.14C52.67,325.77,68.4,339.42,74.41,346.2Z" style="fill:#ebebeb"></path><path d="M65.06,340.5c-1-.95-3.88-4.7-5.72-3.94s1.09,4.55,1.64,5.35a54.79,54.79,0,0,0,6.72,8.31c2.55,2.48,5.57,4.13,8.52,6.07,7.24,4.79,13.63,11,19.45,17.42h0l0,0a.13.13,0,0,0,0-.17l-.13-.18,0-.06C86.56,361.41,75.76,350.9,65.06,340.5Zm30,32.4a123.5,123.5,0,0,0-12.86-12.51c-5.32-4.46-11.76-7.33-16.36-12.63a41,41,0,0,1-6-8.38c-.21-.4-1-1.77-.45-2.3s1.75.11,3.38,1.6c1.34,1.24,2.62,2.56,3.93,3.84,5.15,5,10.27,10.09,15.22,15.32Q88.75,365.12,95,372.9Z" style="fill:#fff"></path><path d="M105.84,408.72a.17.17,0,0,1,0,.12.21.21,0,0,1-.26.13l-.72-.23s0,0-.06,0c-5.4-.7-9.79.22-15,1.55a24,24,0,0,1-11.69,0A39.89,39.89,0,0,1,66.32,405c-1.49-.95-6.23-3.07-5.46-5.68,1.27-4.28,15.68,1.3,18.17,2.1A111.74,111.74,0,0,0,92.52,405c4.51.88,9,1.62,13.23,3.58A.14.14,0,0,1,105.84,408.72Z" style="fill:#ebebeb"></path><path d="M103,408.06s0,0,0,0c-2.61-.6-5.21-1.3-7.84-1.76-3-.52-6-.45-8.92-1-5.54-1-10.81-3-16.28-4.19-.72-.15-2.13-.43-1.75.78.16.53.92,1,1.32,1.24a25.7,25.7,0,0,0,3.86,2.27c4.56,2.17,9.85,3.76,14.95,3.54,5.91-.27,11.66-1.39,17.5-.13a.17.17,0,0,0,0-.12A17.93,17.93,0,0,0,103,408.06Zm-12.8.36A32.59,32.59,0,0,1,71.6,404a26.78,26.78,0,0,1-2.39-1.59c-.45-.38-1.11-1.2.63-1a10.62,10.62,0,0,1,1.21.29c1.41.36,2.81.75,4.22,1.15,3,.85,6,1.75,9,2.39a55.12,55.12,0,0,0,8.2,1A66.59,66.59,0,0,1,102.4,408C98.37,407.48,94.2,408.1,90.18,408.42Z" style="fill:#fff"></path><path d="M90.27,397a.42.42,0,0,1,0,.25.61.61,0,0,1,0,.12.43.43,0,0,1-.09.13l0,0a.39.39,0,0,1-.38,0,16.75,16.75,0,0,1-2.31-1c-8.94-3.41-18.11-7-25.39-13.33a58.86,58.86,0,0,1-9.74-11c-1.37-2-5.14-6.15-3.9-8.93s3.7-1,5.37.14a128.33,128.33,0,0,1,12.54,9.47,70.29,70.29,0,0,1,10.48,11.39c3.66,5,7.17,10.18,13.21,12.45A.41.41,0,0,1,90.27,397Z" style="fill:#ebebeb"></path><path d="M73.74,384.35a150.92,150.92,0,0,0-16.35-14.81c-.75-.6-2.9-2.13-3.24-.41-.39,2,2.6,4.41,3.74,5.61a116.22,116.22,0,0,0,14,12.71,64.75,64.75,0,0,0,18.34,9.93.61.61,0,0,0,0-.12c-10.84-4-20.23-11.07-28.43-19.1-2-1.93-4-3.89-5.78-6-.29-.33-2-2.59-1.3-3.21s2.9,1.31,3.17,1.55c1.31,1.07,2.61,2.16,3.91,3.25a178.63,178.63,0,0,1,13.78,13.18,44.07,44.07,0,0,0,14.65,10.32.42.42,0,0,0,0-.25C83.71,394.12,78.64,389.57,73.74,384.35Z" style="fill:#fff"></path><path d="M73.82,303.92a43.69,43.69,0,0,1,7.07,13.41c2.18,7.56,2,15.47,3.14,23.2a.14.14,0,0,0,0,.09,53.71,53.71,0,0,0,1.22,6.24c.12.44.24.88.37,1.32a.3.3,0,0,1,0,.27.51.51,0,0,1-.18.09.37.37,0,0,1-.18,0h0a.32.32,0,0,1-.21-.2c-.22-.62-.41-1.25-.6-1.88a.12.12,0,0,1-.09-.08c-4.62-9.65-9.87-19.4-15.11-28.95a77.25,77.25,0,0,1-6-13.21c-.88-2.72-2-6.91,0-9.43a.61.61,0,0,1,.53-.28C68.16,295.23,71.43,300.66,73.82,303.92Z" style="fill:#ebebeb"></path><path d="M69,304.54c-2.09-.68-1.67,1.79-1.33,3a87.78,87.78,0,0,0,3.69,9.75q2.19,5.4,4.55,10.73c3,6.71,7.11,13.39,9.3,20.42v0h0a.37.37,0,0,0,.18,0,.51.51,0,0,0,.18-.09l-.33-1.59c-.41-2.08-.81-4.16-1.22-6.24a.14.14,0,0,1,0-.09c-2-10-4.16-19.94-9.42-29.13C73.38,309.27,71.56,305.36,69,304.54Zm6.25,8.75a73,73,0,0,1,6.64,18.35c1.15,5.06,1.92,10.2,3,15.28-1.46-4.08-3.59-8-5.43-11.91q-4.32-9.31-8.15-18.82-.93-2.28-1.82-4.59c-.52-1.36-1.65-3.48-1.65-5,0-2.88,2.39-.92,3.17-.07A16.43,16.43,0,0,1,72.75,309C73.64,310.41,74.47,311.84,75.25,313.29Z" style="fill:#fff"></path><path d="M137.66,356A210.08,210.08,0,0,1,132,383.88c-2.35,8.4-4.79,16.8-5.93,25.47-1.52,11.51-.48,24.13,5.39,34.14a135.69,135.69,0,0,1-23.11-38.64c-9.46-23.75-18-48.15-29.51-71-.19-.38-.71-.09-.57.29,4.7,12.49,10.23,24.68,15,37.13s9.21,24.89,14.22,37.17c.54,1.33,1.1,2.64,1.68,3.94-7.33-9.08-18.08-15.78-28.62-19.66-.14-.05-.19.16-.07.21a74.41,74.41,0,0,1,20.34,13.52c5.25,4.84,9.25,10.45,13.48,16.13a114.2,114.2,0,0,0,39.91,41.64.16.16,0,0,0,.17-.27,114,114,0,0,1-18.46-15.49c-9.44-12.49-9.88-29.16-7.07-44.31,1.48-7.95,3.58-15.75,5.46-23.6s4-16.26,3.8-24.5A.23.23,0,0,0,137.66,356Z" style="fill:#ebebeb"></path><circle cx="380.5" cy="113.34" r="68.88" transform="matrix(1, -0.08, 0.08, 1, -7.48, 29.11)" style="fill:#ebebeb"></circle><rect x="328.61" y="105.04" width="103.77" height="16.6" style="fill:#fff"></rect><g id="freepik--evN0z7--inject-5"><path d="M97.71,166.41l-.14,0a2.43,2.43,0,0,1-.2-.25c-2-2.75-4-5.54-6.06-8.25A9,9,0,0,0,89,155.8a6.21,6.21,0,0,0-9.59,3.7,7,7,0,0,0,1.08,5.67q7.91,12,15.83,24a25.27,25.27,0,0,0,11.46,9.74,38.1,38.1,0,0,0,25.42,1.4,20.28,20.28,0,0,0,13.45-11.69A26.14,26.14,0,0,0,149,177.82q0-14.73,0-29.47V132.43a5.29,5.29,0,0,0-2-4.35,5.39,5.39,0,0,0-8.81,4.18c0,7.13,0,14.27,0,21.4,0,1.22-.48,1.88-1.36,1.87s-1.35-.65-1.35-1.88q0-15.42,0-30.85c0-.44,0-.88,0-1.32a5.37,5.37,0,0,0-10.71.73q0,14,0,27.94a6.91,6.91,0,0,1,0,.79,1.35,1.35,0,0,1-2.67.12,4.91,4.91,0,0,1,0-.86v-31a8.29,8.29,0,0,0,0-.86,5.17,5.17,0,0,0-2.62-4.26,5.36,5.36,0,0,0-8.1,4.67q0,15.72,0,31.44a5.93,5.93,0,0,1,0,.73,1.36,1.36,0,0,1-1.35,1.2,1.34,1.34,0,0,1-1.34-1.14,4.34,4.34,0,0,1,0-.72v-11.7c0-4.36,0-8.72,0-13.08a5.37,5.37,0,1,0-10.74.17v40.74Z" style="fill:#ebebeb"></path><path d="M97.71,166.41V125.67a5.37,5.37,0,1,1,10.74-.17c0,4.36,0,8.72,0,13.08v11.7a4.34,4.34,0,0,0,0,.72,1.34,1.34,0,0,0,1.34,1.14,1.36,1.36,0,0,0,1.35-1.2,5.93,5.93,0,0,0,0-.73q0-15.72,0-31.44a5.36,5.36,0,0,1,8.1-4.67,5.17,5.17,0,0,1,2.62,4.26,8.29,8.29,0,0,1,0,.86v31a4.91,4.91,0,0,0,0,.86,1.35,1.35,0,0,0,2.67-.12,6.91,6.91,0,0,0,0-.79q0-14,0-27.94a5.37,5.37,0,0,1,10.71-.73c0,.44,0,.88,0,1.32q0,15.42,0,30.85c0,1.23.46,1.87,1.35,1.88s1.36-.65,1.36-1.87c0-7.13,0-14.27,0-21.4a5.39,5.39,0,0,1,8.81-4.18,5.29,5.29,0,0,1,2,4.35v15.92q0,14.73,0,29.47a26.14,26.14,0,0,1-2.28,10.77,20.28,20.28,0,0,1-13.45,11.69,38.1,38.1,0,0,1-25.42-1.4,25.27,25.27,0,0,1-11.46-9.74q-7.93-12-15.83-24a7,7,0,0,1-1.08-5.67A6.21,6.21,0,0,1,89,155.8,9,9,0,0,1,91.31,158c2.07,2.71,4,5.5,6.06,8.25a2.43,2.43,0,0,0,.2.25Z" style="fill:#ebebeb"></path></g><path d="M119.49,226.46a68.88,68.88,0,1,1,68.88-68.88A69,69,0,0,1,119.49,226.46Zm0-123.78a54.9,54.9,0,1,0,54.89,54.9A55,55,0,0,0,119.49,102.68Z" style="fill:#dbdbdb"></path><rect x="112.49" y="95.89" width="13.98" height="123.38" transform="translate(-76.43 130.64) rotate(-45)" style="fill:#dbdbdb"></rect></g><g id="freepik--Table--inject-5"><path d="M460,464c-134.53.62-285.43.62-420,0,134.53-.61,285.43-.61,420,0Z" style="fill:#263238"></path></g><g id="freepik--Plants--inject-5"><path d="M352.87,434.28c-3.34-5.57-7.17-11.72-6.09-18.45,1-6.22,3.91-12.9,10-15.54,1.75-.75,3-.94,3.26,1.23.42,3.3-1.41,7-2.47,10.08a65.3,65.3,0,0,0-3.1,12c-.43,2.88-.57,5.79-.93,8.68,0,.36-.08.73-.14,1.09,0,.14,0,.28-.06.42l.09.16a.32.32,0,0,1,0,.3.23.23,0,0,1-.07.1A.34.34,0,0,1,352.87,434.28Z" style="fill:#FF725E"></path><path d="M353.4,434.35c-2.68-5-5.88-10.29-4.71-16.16a26.85,26.85,0,0,1,3.06-7.75c.62-1.09,2.46-4.37,4-4.27,2.74.18-2.19,10.67-2.52,11.93a27.82,27.82,0,0,0,.38,14.18c0,.36-.08.73-.14,1.09a31,31,0,0,1-1.41-10c.16-4.71,2.19-8.41,3.57-12.79.3-.95,1.42-3.93-.28-3.88-1.12,0-2.93,3.22-3.32,3.91a26.32,26.32,0,0,0-2.92,7.34c-1.27,5.9,1.82,11.19,4.39,16.33A.23.23,0,0,1,353.4,434.35Z" style="fill:#fff"></path><path d="M351.14,439.32l-.73.23h0a.19.19,0,0,1-.18,0,.29.29,0,0,1,0-.37.21.21,0,0,1,.14-.07l.1,0,.23-.05v0l.06-.05c3.19-3.09,6.88-5.64,10.05-8.78,3-3,5.84-6.2,9.1-9,2-1.74,12.74-9.75,14.12-3.85.61,2.61-1.8,6-3.28,7.92a27.32,27.32,0,0,1-7.28,6.48C366.56,436,358.7,437,351.14,439.32Z" style="fill:#FF725E"></path><path d="M366.46,433a31.44,31.44,0,0,0,7.4-5.17c.77-.72,4.41-4.18,3.5-5.57-.57-.9-2.5,0-3.15.22-2.76,1.1-4.93,3.4-7.15,5.29a121.86,121.86,0,0,1-14.43,10.43c-.35.14-.71.27-1.06.42s-.58.23-.87.34c-.1.05-.2.08-.3.12l-.24.1a.28.28,0,0,0,0,.36l.69-.26-.51.3h0l.59-.19.14,0,.85-.49C356.87,437,361.84,435.38,366.46,433Zm-12.64,4.75q4.44-2.73,8.58-5.89c2.24-1.69,4.39-3.48,6.5-5.31a27.83,27.83,0,0,1,3.74-2.92c1-.63,5-2.64,3.71.71-1,2.43-4.5,4.85-6.55,6.22a45.43,45.43,0,0,1-7.27,3.84C359.67,435.59,356.73,436.64,353.82,437.72Z" style="fill:#fff"></path><path d="M337.27,451h0a2,2,0,0,1-.14-.2c-2.61-5.33-6.92-12-5.88-18.19.77-4.59,4-10.5,8.85-11.84,5.43-1.51,3.26,8.15,2.83,10.63A182.31,182.31,0,0,1,337.59,451l-.06.12a0,0,0,0,0,0,0C337.46,451.19,337.36,451.1,337.27,451Z" style="fill:#FF725E"></path><path d="M337.52,451.1c0-.4,0-.81.06-1.21.26-4.6.71-9.2,1.4-13.75.17-1.15,2.13-9.87-.21-9.72-1.42.09-2.64,3.29-3.08,4.33a18.34,18.34,0,0,0-1.33,5.89c-.24,4.65,1.62,9.1,2.75,13.59.06.21.11.42.16.63,0,.05,0,.09,0,.14h0C337.36,451.1,337.46,451.18,337.52,451.1Zm-2.73-11.9a18.3,18.3,0,0,1,.54-6.16c.35-1.32,1.75-6.11,3.48-6,.92,0,.75.61.81,1.66a11.62,11.62,0,0,1,0,1.45c-.09,1.19-.31,2.36-.5,3.53-.36,2.06-.66,4.11-.91,6.18-.43,3.38-.71,6.78-.88,10.18C336.54,446.4,335.09,442.9,334.79,439.2Z" style="fill:#fff"></path><path d="M353.2,454.56a35,35,0,0,1-20.45-.29.23.23,0,0,1-.11-.07.27.27,0,0,1-.05-.32.26.26,0,0,1,.31-.14l.41.12c7.53-3.05,15.07-6,22.54-9.18,1.76-.75,13.1-5.32,13.17-1.1.05,2.6-4.22,5.14-6.08,6.4A35.44,35.44,0,0,1,353.2,454.56Z" style="fill:#FF725E"></path><path d="M361.61,447.44c.5-.5.93-1.15.15-1.58-1.49-.83-6.75,1.43-8.25,2-6.17,2.28-12.39,4-18.72,5.68l-1.6.44-.6-.09a.27.27,0,0,0,.05.32l.16,0c.27,0,.54.08.81.1h0a41.6,41.6,0,0,0,12.85-.41,39.28,39.28,0,0,0,7.81-2.35C356.6,450.55,359.84,449.28,361.61,447.44ZM334,454l-.39,0c.23,0,.44-.08.67-.14a116.91,116.91,0,0,0,14.7-4c2.44-.86,4.81-1.86,7.27-2.63,1-.32,4-1.34,4.82-.8s-.19,1.09-.74,1.5c-.4.29-1.19.72-1.59,1A40.83,40.83,0,0,1,334,454Z" style="fill:#fff"></path><path d="M318,463.55l-.58-1,2.7-1.58c3.62-2.17,7.22-4.36,10.78-6.62,2-1.28,4-2.59,6-3.95l.2-.14c.15-.12.31-.23.47-.34l.51-.37a51.23,51.23,0,0,0,11.57-11.07c1.07-1.45,2.07-2.95,3-4.47l.27-.44a.75.75,0,0,0,.07-.12c.11-.15.19-.3.29-.46l.21-.35c2.89-4.74,5.41-9.72,8-14.57.75-1.39,1.5-2.79,2.27-4.17a1.38,1.38,0,0,1,.14-.24,1.82,1.82,0,0,1,.16-.31c3.35-6.13,6.77-12.24,10-18.44.11-.23.45,0,.33.21-2.09,4.16-4.08,8.36-6.1,12.56-.26.56-.54,1.12-.8,1.68-.54,1.11-1.07,2.21-1.61,3.31-1.07,2.2-2.16,4.39-3.29,6.57-3.15,6.11-6.27,12.4-10.16,18.11-.29.43-.59.84-.9,1.27-.18.26-.37.53-.57.77s-.43.6-.66.9c-4,5.23-9,9.06-14.41,12.54l-1.14.73-.52.33L334,454c-.13.07-.24.15-.37.23h0l-.28.17-1,.6c-3.61,2.19-7.24,4.33-10.87,6.45C320.32,462.16,319.17,462.86,318,463.55Z" style="fill:#FF725E"></path><path d="M367.62,395.61c2.25-5,8.11-13,14.53-11.05a5.1,5.1,0,0,1,3.72,5.7c-.37,3.09-2.85,5.76-4.95,7.86-5.62,5.62-11.73,10.66-16.95,16.69,0,.06-.45.51-.56.65s-.28-.06-.18-.19l.51-.59C364.52,408.34,365,401.49,367.62,395.61Z" style="fill:#FF725E"></path><path d="M364,414.85s0-.08.07-.13a53.27,53.27,0,0,1,3.48-5.39,107,107,0,0,1,8.68-10.14c1.18-1.26,7.06-7.18,2.88-8.14-1.76-.4-3.77.9-5.12,1.87a20.29,20.29,0,0,0-5.37,5.82c-2.8,4.5-3.93,9.7-4.62,14.89,0,.24-.07.47-.1.71a2.12,2.12,0,0,0-.12.2l-.08.13a.37.37,0,0,0,0,.09.18.18,0,0,0,.22.17A.13.13,0,0,0,364,414.85Zm.16-1.53a42.93,42.93,0,0,1,3.59-12.44,22.68,22.68,0,0,1,3.87-5.55,19.6,19.6,0,0,1,2.27-2,12.94,12.94,0,0,1,1.9-1.2c1.47-.76,3.38-1,4-.26.78.95.36,1.64-.47,3a15.51,15.51,0,0,1-.92,1.32,38.52,38.52,0,0,1-2.68,3c-1.53,1.62-3,3.24-4.5,4.92-1,1.14-2,2.3-2.87,3.5a55.17,55.17,0,0,0-4.32,6.47C364,413.85,364.09,413.58,364.14,413.32Z" style="fill:#fff"></path><path d="M129.71,422.1c3.21,3,6.22,6.12,9.18,9.32,1.69,1.8,3.35,3.64,5,5.45,1.86,2,3.61,4.22,6.22,5.2h0a2.46,2.46,0,0,1,.32.19s0,0,0,.05a.33.33,0,0,1-.41.4l-.17-.06h-.08a10.68,10.68,0,0,1-2.36-.55,55.64,55.64,0,0,1-6.34-1.89,54.06,54.06,0,0,1-12.09-6.05,45.45,45.45,0,0,1-9-8c-2.11-2.45-5.28-6.07-5.88-9.38-.53-3,3.33-2.4,5.12-1.87C123.31,416.09,126.68,419.31,129.71,422.1Z" style="fill:#FF725E"></path><path d="M120,419.91c-.92,1.29,2.56,5.18,4,6.92a43.3,43.3,0,0,0,7.85,7.27,56.69,56.69,0,0,0,17.24,8.31l.75.23h.07l.17.06a.33.33,0,0,0,.41-.4c-.5-.23-1-.47-1.44-.73s-.84-.47-1.24-.72c-4.46-2.65-8.34-6.34-12.14-9.86C131.23,426.86,121.21,418.22,120,419.91Zm28.5,21.77c.62.35,1.24.66,1.88.95l-1.5-.49a63,63,0,0,1-15.27-7.26,45,45,0,0,1-7.34-6.09,42.57,42.57,0,0,1-3.33-3.9c-.43-.57-3.23-4-2.49-4.66.52-.46,3.74,1.64,3.81,1.68.64.41,1.27.86,1.9,1.32,1.28.94,2.51,1.95,3.71,3,2.62,2.24,5.11,4.62,7.65,7C140.9,436.26,144.45,439.45,148.49,441.68Z" style="fill:#fff"></path><path d="M153.89,408.84c2.91,5.64,3.6,12.13,3.68,18.39.05,3.35-.06,6.7-.1,10a44.54,44.54,0,0,0,.32,9c0,.12.05.25.08.39a10.75,10.75,0,0,0,.8,2.38.18.18,0,0,1,0,.16l.15.22c0,.06,0,.13-.09.08l-.21-.19h0a.19.19,0,0,1-.19-.12.25.25,0,0,1,0-.09l-.21-.19c-4.89-4.52-7.64-12.16-9.5-18.3s-2.72-12.67-1.11-18.93c.41-1.57,1.11-5.31,3-5.85C152.2,405.32,153.28,407.64,153.89,408.84Z" style="fill:#FF725E"></path><path d="M151.31,412.49c-1.92.32-1.51,5.6-1.46,6.88a67.52,67.52,0,0,0,1.76,11.57c1.38,6.25,3.18,12.23,6.38,17.72h0c0,.08,0,.15.07.22l.2.2a.73.73,0,0,0,.05.09.18.18,0,0,0,.19.12c0-.11-.05-.2-.07-.3-.22-.77-.4-1.56-.56-2.34,0-.14-.06-.27-.08-.39-1.12-5.45-1.31-11.07-1.72-16.64a62.87,62.87,0,0,0-1.74-11.51C154.07,417.15,152.92,412.23,151.31,412.49Zm1.73,2.79c2.62,6.08,2.55,13.31,3,19.8a69.32,69.32,0,0,0,1.82,13A64.19,64.19,0,0,1,152.27,432a84.9,84.9,0,0,1-1.74-9.61,34.54,34.54,0,0,1-.29-5.29,13.67,13.67,0,0,1,.4-3.15C151.3,412,152.58,414.24,153,415.28Z" style="fill:#fff"></path><path d="M169.08,457.61a.33.33,0,0,1,0,.33h.13a.11.11,0,0,1,.11.1.09.09,0,0,1-.09.11c-7.55,1.19-15.93,1.54-23.36-.49a30.21,30.21,0,0,1-8.84-4c-1.85-1.25-5.56-3.76-5.77-6.25-.42-5,12.85.19,14.84,1,3.65,1.44,7.16,3.18,10.77,4.69,3.95,1.64,8,3,12.07,4.36A.3.3,0,0,1,169.08,457.61Z" style="fill:#FF725E"></path><path d="M169.08,457.6c-.41,0-.81-.07-1.22-.13a64.07,64.07,0,0,1-19.11-5.18,59.22,59.22,0,0,0-9.34-3.55c-.8-.19-3.75-1.13-3.28.77.25,1,5.11,3.78,6.43,4.41a40.75,40.75,0,0,0,9.53,3,67.15,67.15,0,0,0,16.7,1.15l.48,0a.09.09,0,0,0-.1-.1h-.12A.37.37,0,0,0,169.08,457.6ZM154.9,457a47.54,47.54,0,0,1-9.63-2.36,35.25,35.25,0,0,1-3.62-1.6,21.42,21.42,0,0,1-2.66-1.58c-2-1.49-2.46-2-2.29-2.43.11-.24.55-.37,2.21-.1a16.37,16.37,0,0,1,3.12.91c1.43.54,2.85,1.14,4.27,1.75,2.82,1.22,5.64,2.48,8.55,3.48a49.91,49.91,0,0,0,12.91,2.7A77.11,77.11,0,0,1,154.9,457Z" style="fill:#fff"></path><path d="M168.3,435.93a19,19,0,0,1,3.89,7.1c1.73,5.14,2.33,10.57,3.69,15.81.2.78.42,1.56.66,2.33,0,.09.54.95.49.9s-.27-.27-.68-.7h0c-2-2.14-8.12-8.73-10.45-13.2a38.89,38.89,0,0,1-3.51-8.74c-.33-1.45-.95-4.73.49-5.84S167.32,434.9,168.3,435.93Z" style="fill:#FF725E"></path><path d="M165.2,437.2c-2,.84,2.16,9.72,2.69,10.89a54.3,54.3,0,0,0,7.44,12c.33.42.67.83,1,1.24s.65.69.67.7-.44-.81-.48-.9l-.12-.4c-.2-.64-.38-1.29-.54-1.93-1.33-3.5-2.59-7-4-10.53a50.43,50.43,0,0,0-3.54-7.28C168,440.5,166.09,436.83,165.2,437.2Zm1.66,1.83c4.52,6.49,6.16,14.29,9.14,21.49l.15.36-.38-.48a62.77,62.77,0,0,1-6.31-9.89,57.71,57.71,0,0,1-2.84-6.56,28.56,28.56,0,0,1-1.26-3.72c-.13-.55-.4-2.09,0-2.29S166.56,438.61,166.86,439Z" style="fill:#fff"></path><path d="M129.13,385c7.12,11.88,3.49,27.12,9.79,39.35l0,.06q.28.57.6,1.11a.25.25,0,0,1-.19.38.18.18,0,0,1-.18-.1l-.15-.27c-5.64-5.24-10.21-12.35-13.57-19.24-2.91-6-4.84-12.71-3.84-19.4.24-1.65.62-4.94,2.61-5.56S128.26,383.51,129.13,385Z" style="fill:#FF725E"></path><path d="M126.68,389.34c-.83.27-.94,1.5-1,2.17a21.07,21.07,0,0,0-.11,5.08,35.22,35.22,0,0,0,2.58,10.07,72.44,72.44,0,0,0,8.41,15.7c.8,1.08,1.63,2.14,2.51,3.14l.33.37a.27.27,0,0,0,.2-.38c-.22-.35-.4-.7-.6-1.06l-.05-.1a43.09,43.09,0,0,1-3.6-7.42,100.32,100.32,0,0,1-3.17-12.44C131.79,402.83,129.55,388.39,126.68,389.34Zm1.88,2.42c1.45,3.11,1.91,6.64,2.65,10s1.47,6.72,2.27,10.06a48.18,48.18,0,0,0,2.56,7.78,38.19,38.19,0,0,0,3.21,6,53.71,53.71,0,0,1-3.91-5.46.09.09,0,0,1,0-.07,93.57,93.57,0,0,1-5.57-10.57l-.07-.13a43.87,43.87,0,0,1-3.39-9.94,25.34,25.34,0,0,1-.48-5.7c.11-2.16.41-3.9,1.15-3.93C127.45,389.77,128.14,390.85,128.56,391.76Z" style="fill:#fff"></path><path d="M130,409.33c2,3.43,4,6.84,6,10.23l2.88,4.77.05.1c.35.56.7,1.15,1.05,1.72,3.14,5.18,6.24,10.64,10.19,15.26a52.32,52.32,0,0,0,7,6.63c.27.2.53.41.79.62h0l.44.33.24.18c2.21,1.7,4.5,3.3,6.74,4.83,3.12,2.15,6.37,4.08,9.63,6a1.69,1.69,0,0,0,.29.17l.44.27.23.12.42.25,3.14,1.84-.67.94a74.76,74.76,0,0,1-9.91-5.36l-.19-.13c-.31-.18-.63-.38-.93-.59s-.76-.48-1.13-.73c-.91-.6-1.8-1.2-2.68-1.8-5.1-3.52-10.31-7.33-14.46-12l-.33-.39a1.22,1.22,0,0,1-.15-.17l-.24-.27-.38-.46c-.23-.27-.45-.55-.66-.83l-.19-.24c-3.39-4.38-6.11-9.41-8.83-14.16-.5-.88-1-1.75-1.47-2.63l-.81-1.46c-.39-.74-.79-1.5-1.19-2.24a.09.09,0,0,1,0-.07c-1.88-3.52-3.68-7.07-5.57-10.57C129.65,409.32,129.92,409.17,130,409.33Z" style="fill:#FF725E"></path></g><g id="freepik--Character--inject-5"><path d="M283.49,360.13s0,.06,0,.18a.79.79,0,0,1,0,.13c0,.1,0,.2-.06.35l0,.23a4.58,4.58,0,0,0-.09.5c0,.12,0,.24-.06.37s-.09.54-.16.85c-.09.49-.19,1.05-.3,1.67l-.58,3.16c-.06.33-.13.7-.19,1.07s-.18,1-.29,1.54-.21,1.19-.32,1.83a0,0,0,0,0,0,0c-.08.44-.17.9-.25,1.36-.25,1.39-.51,2.86-.8,4.44a.27.27,0,0,0,0,.12c-.31,1.76-.65,3.65-1,5.63-.09.51-.19,1-.3,1.55s-.2,1.09-.29,1.63c0,0,0,0,0,0-.06.34-.12.68-.2,1v0c-.49,2.76-1,5.67-1.59,8.75-.19,1-.37,2.08-.57,3.14-.37,2.07-.76,4.19-1.16,6.38-.11.51-.2,1-.27,1.53-.59,3.17-1.18,6.47-1.8,9.88-.08.35-.13.7-.2,1.05-.3,1.61-.59,3.23-.88,4.88a2.7,2.7,0,0,0-.08.39l-.42,2.35c-.57,3.16-1.15,6.4-1.76,9.7-.16.81-.31,1.64-.46,2.48-.29,1.67-.6,3.35-.91,5.05-.39,2.11-.78,4.23-1.17,6.39s-.77,4.32-1.18,6.51l-.6,3.3-.72,4H153c13.8-57.31,25.43-103.49,25.43-103.49Z" style="fill:#263238"></path><path d="M266.59,373q-8.4,45.3-17,90.59h-1.55c5.94-30.27,12.06-60.48,18.15-90.71C266.27,372.67,266.63,372.78,266.59,373Z" style="fill:#37474f"></path><path d="M283.48,360.13a.85.85,0,0,0,0,.18.79.79,0,0,1,0,.13c0,.09,0,.2-.06.35l0,.23a4.58,4.58,0,0,0-.09.5c0,.12,0,.24-.06.37s-.11.54-.16.85c-.09.49-.19,1.05-.3,1.67-.18.92-.36,2-.58,3.16-.06.33-.13.7-.19,1.07s-.18,1-.29,1.54-.21,1.19-.32,1.83a0,0,0,0,0,0,0c-.08.44-.17.9-.25,1.36-.26,1.39-.52,2.86-.8,4.44a.27.27,0,0,0,0,.12l-1,5.6c-.1.52-.2,1.05-.29,1.58s-.2,1.09-.29,1.63c0,0,0,0,0,0-.08.34-.13.68-.2,1v0c-.5,2.74-1,5.67-1.59,8.75-.19,1-.37,2.08-.57,3.14-.39,2.07-.77,4.19-1.16,6.38-.11.51-.2,1-.27,1.53-.6,3.18-1.2,6.48-1.8,9.88-.08.35-.13.7-.2,1.05-.3,1.61-.59,3.23-.88,4.88a2.7,2.7,0,0,0-.08.39l-.42,2.35c-.58,3.16-1.17,6.4-1.76,9.7-.16.81-.31,1.64-.46,2.48-.31,1.67-.6,3.35-.91,5.05-.39,2.11-.78,4.23-1.17,6.39s-.79,4.32-1.18,6.51l-.6,3.3c-.24,1.32-.48,2.64-.73,4h-56l-4.49-46L204,416l-.18-1.76h0l-.88-9h0l-.76-7.79-3.65-37.33Z" style="fill:#37474f"></path><path d="M347,463.62H226.41c-.21-11.1-.43-21.84-.7-32v0c0-.24,0-.49,0-.73,0,0-14.08-8.34-21.67-14.87a27.32,27.32,0,0,1-3.54-3.52l0,0h0c-4.85-6.19-9.72-30-19.78-52.34H328.18C346,403.79,347,458.75,347,463.62Z" style="fill:#263238"></path><path d="M197,410.91c7.18,2.94,13.63,7.46,20,11.81,6.62,4.53,12.68,9.76,19,14.61.25.19,0,.59-.26.41-6.71-4.28-13.73-8.05-20.37-12.46-6.45-4.28-13.15-8.45-18.74-13.84C196.45,411.23,196.69,410.79,197,410.91Z" style="fill:#37474f"></path><path d="M196.08,369.42c.86,4.6,2,9.14,3,13.71.93,4.28,1.62,8.65,2.75,12.89a22,22,0,0,0,6,10.8c1.68,1.56,3.53,2.94,5.33,4.37,1,.78,2,1.52,3,2.3-.13-.61-.24-1.23-.35-1.85-.3-1.74-.6-3.49-.89-5.23q-1-5.81-1.86-11.62c-1.16-7.62-2.24-15.32-3.83-22.87a.25.25,0,0,1,.48-.12c1.9,7.48,4,14.88,5.65,22.42.81,3.7,3.7,21.95,3.83,23.25s.24,2.67.29,4a15.63,15.63,0,0,1,0,4.1c-.07.33-.48.28-.62.05l0,0a16.34,16.34,0,0,1-1.16-4c-.33-1.3-.63-2.63-.86-3.95-.09-.48-.15-1-.22-1.46-1.8-1.09-3.47-2.54-5.15-3.75s-3.66-2.59-5.38-4a20.55,20.55,0,0,1-6.55-10.24,74.66,74.66,0,0,1-2.15-13.12c-.58-5.19-1-10.41-1.73-15.58C195.56,369.24,196,369.11,196.08,369.42Z" style="fill:#37474f"></path><path d="M320.13,406.68c-1.92-1-9.38.78-22.95-1.55a15.55,15.55,0,0,1-7.33-3c-3.54-2.89-6.22-7.53-8.36-11.5a59.26,59.26,0,0,1-5.84-14.21c-.07-.29-.51-.15-.45.14.5,2.81.78,5.61,1.52,8.39a51.67,51.67,0,0,0,2.81,7.63c2.05,4.61,4.45,9.55,8.58,12.66,4.33,3.27,10.38,3.88,15.63,4.25,3,.21,14.95-.11,16.55-1.81A.66.66,0,0,0,320.13,406.68Z" style="fill:#37474f"></path><path d="M314.91,366.88c1.37,3.9,2.7,7.79,3.81,11.75s2.22,7.91,3.23,11.88a228.52,228.52,0,0,1,4.6,24.13,173.89,173.89,0,0,1,1.68,24.45l-.1,6.14c-.08,2-.3,4.09-.44,6.13l-.2,3.08c-.11,1-.28,2-.42,3.05-.3,2-.57,4.08-.82,6.13a106.91,106.91,0,0,0,4-24.47,136,136,0,0,0-1.13-24.86,166.08,166.08,0,0,0-5.23-24.3A139.62,139.62,0,0,0,314.91,366.88Z" style="fill:#37474f"></path><path d="M205.34,197.73C148,241.57,101.67,307.49,110.4,330.86c9.26,24.79,59.5-13.7,61.66-17.32,7.09-11.9,33.47-51.45,58.78-96.13S219.53,186.89,205.34,197.73Z" style="fill:#f7a9a0"></path><path d="M178.73,312.89C189,299.47,220.65,239.28,234,213.51c12-23.14,5.81-37.2-16.55-24.95-41.16,22.54-90.27,75.05-110.14,117.17-19.14,40.57,15.17,53.26,32.24,42.7C164.07,333.27,170.47,323.66,178.73,312.89Z" style="fill:#455a64"></path><path d="M205.16,212.39a4.33,4.33,0,1,0,4.33,4.33A4.33,4.33,0,0,0,205.16,212.39Zm0,6.65a2.33,2.33,0,1,1,2.33-2.32A2.32,2.32,0,0,1,205.16,219Zm21.23-34.25h0a34,34,0,0,0-4.76,1.72,0,0,0,0,0,0,0,4.33,4.33,0,1,0,4.78-1.73Zm-1.19,6.47a2.33,2.33,0,1,1,2.32-2.32A2.33,2.33,0,0,1,225.2,191.26Zm-97.15,80.31-1.19,1.66A2.33,2.33,0,0,1,125,277a2.35,2.35,0,0,1-.71-.11l-1.16,1.68A4.21,4.21,0,0,0,125,279a4.33,4.33,0,0,0,4.32-4.33A4.27,4.27,0,0,0,128.05,271.57Zm37-1.25a4.33,4.33,0,1,0,4.32,4.32A4.33,4.33,0,0,0,165.09,270.32Zm0,6.65a2.33,2.33,0,1,1,2.32-2.33A2.32,2.32,0,0,1,165.09,277Zm35.75-2.33a4.44,4.44,0,0,0,.11,1c.92-1.66,1.85-3.34,2.77-5A4.33,4.33,0,0,0,200.84,274.64Zm-51.67-29.1c-.66.73-1.31,1.47-2,2.21a2.29,2.29,0,0,1-1,1.11h0l-1.94,2.25a3.94,3.94,0,0,0,.77.07,4.33,4.33,0,0,0,4.33-4.32A4.21,4.21,0,0,0,149.17,245.54Zm36-3a4.33,4.33,0,1,0,4.32,4.33A4.33,4.33,0,0,0,185.13,242.54Zm0,6.65a2.33,2.33,0,1,1,2.32-2.32A2.32,2.32,0,0,1,185.13,249.19ZM125,328.25a4.33,4.33,0,1,0,4.32,4.32A4.32,4.32,0,0,0,125,328.25Zm0,6.65a2.33,2.33,0,1,1,2.32-2.33A2.33,2.33,0,0,1,125,334.9Zm40.07-6.65a4.33,4.33,0,0,0-4.32,4.32,3.43,3.43,0,0,0,0,.56c1.89-1.65,3.58-3.24,5.11-4.8A4.58,4.58,0,0,0,165.09,328.25ZM108.8,302.76c-.51,1-1,2-1.45,3s-1,2.22-1.46,3.29a4.32,4.32,0,0,0,2.91-6.26Zm36.25-2.29a4.33,4.33,0,1,0,4.33,4.32A4.33,4.33,0,0,0,145.05,300.47Zm0,6.65a2.33,2.33,0,1,1,2.33-2.33A2.32,2.32,0,0,1,145.05,307.12Zm40.08-6.65a4.33,4.33,0,0,0-4.33,4.32,4.28,4.28,0,0,0,1.37,3.15l1.1-1.74a2.3,2.3,0,0,1-.47-1.41,2.32,2.32,0,0,1,2.33-2.32,2,2,0,0,1,.43,0c.35-.57.71-1.16,1.06-1.76A4.11,4.11,0,0,0,185.13,300.47Z" style="fill:#37474f"></path><path d="M234,213.51c-13.39,25.77-45,86-55.31,99.38-8.22,10.7-14.57,20.26-38.67,35.25L232,184C241.87,184.5,242.83,196.56,234,213.51Z" style="opacity:0.1"></path><path d="M163.8,402.94H344.05s-21-166.7-75.52-217.13c-7.57-7-30.36-7.43-42.46,5.05C192.92,225,163.34,402.36,163.8,402.94Z" style="fill:#455a64"></path><path d="M245.23,212.39a4.33,4.33,0,1,0,4.33,4.33A4.33,4.33,0,0,0,245.23,212.39Zm0,6.65a2.33,2.33,0,1,1,2.33-2.32A2.32,2.32,0,0,1,245.23,219Zm40.07-6.65a4.33,4.33,0,1,0,4.33,4.33A4.33,4.33,0,0,0,285.3,212.39Zm0,6.65a2.33,2.33,0,1,1,2.33-2.32A2.32,2.32,0,0,1,285.3,219Zm-55.9-31.11c-.68.51-1.33,1-2,1.61a2.32,2.32,0,0,1-1.68,1.65c-.57.6-1.13,1.24-1.7,1.92a4.24,4.24,0,0,0,1.14.15,4.33,4.33,0,0,0,4.32-4.32A4.17,4.17,0,0,0,229.4,187.93Zm35.87-3.32a4.33,4.33,0,1,0,4.32,4.33A4.33,4.33,0,0,0,265.27,184.61Zm0,6.65a2.33,2.33,0,1,1,2.32-2.32A2.33,2.33,0,0,1,265.27,191.26Zm-60.11,79.06a4.33,4.33,0,1,0,4.33,4.32A4.33,4.33,0,0,0,205.16,270.32Zm0,6.65a2.33,2.33,0,1,1,2.33-2.33A2.32,2.32,0,0,1,205.16,277Zm40.07-6.65a4.33,4.33,0,1,0,4.33,4.32A4.33,4.33,0,0,0,245.23,270.32Zm0,6.65a2.33,2.33,0,1,1,2.33-2.33A2.32,2.32,0,0,1,245.23,277Zm40.07-6.65a4.33,4.33,0,1,0,4.33,4.32A4.33,4.33,0,0,0,285.3,270.32Zm0,6.65a2.33,2.33,0,1,1,2.33-2.33A2.32,2.32,0,0,1,285.3,277Zm-60.1-34.43a4.33,4.33,0,1,0,4.32,4.33A4.33,4.33,0,0,0,225.2,242.54Zm0,6.65a2.33,2.33,0,1,1,2.32-2.32A2.33,2.33,0,0,1,225.2,249.19Zm40.07-6.65a4.33,4.33,0,1,0,4.32,4.33A4.33,4.33,0,0,0,265.27,242.54Zm0,6.65a2.33,2.33,0,1,1,2.32-2.32A2.33,2.33,0,0,1,265.27,249.19Zm41.27-.34a2.24,2.24,0,0,1-1.2.34,2.32,2.32,0,0,1-.51-4.59l-.78-1.87a4.33,4.33,0,0,0,1.29,8.46,4.2,4.2,0,0,0,1.93-.47C307,250.09,306.78,249.47,306.54,248.85Zm-101.38,79.4a4.33,4.33,0,1,0,4.33,4.32A4.33,4.33,0,0,0,205.16,328.25Zm0,6.65a2.33,2.33,0,1,1,2.33-2.33A2.33,2.33,0,0,1,205.16,334.9Zm40.07-6.65a4.33,4.33,0,1,0,4.33,4.32A4.33,4.33,0,0,0,245.23,328.25Zm0,6.65a2.33,2.33,0,1,1,2.33-2.33A2.33,2.33,0,0,1,245.23,334.9Zm40.07-6.65a4.33,4.33,0,1,0,4.33,4.32A4.33,4.33,0,0,0,285.3,328.25Zm0,6.65a2.33,2.33,0,1,1,2.33-2.33A2.33,2.33,0,0,1,285.3,334.9Zm40.07-6.65a4.33,4.33,0,1,0,4.33,4.32A4.33,4.33,0,0,0,325.37,328.25Zm0,6.65a2.33,2.33,0,1,1,2.33-2.33A2.33,2.33,0,0,1,325.37,334.9ZM185.13,300.47a4.48,4.48,0,0,0-.64,0h0c-.18.76-.37,1.52-.55,2.28a2.33,2.33,0,1,1-.78,3.22l-.54,2.28a4.24,4.24,0,0,0,2.52.82,4.33,4.33,0,0,0,0-8.65Zm40.07,0a4.33,4.33,0,1,0,4.32,4.32A4.33,4.33,0,0,0,225.2,300.47Zm0,6.65a2.33,2.33,0,1,1,2.32-2.33A2.33,2.33,0,0,1,225.2,307.12Zm40.07-6.65a4.33,4.33,0,1,0,4.32,4.32A4.33,4.33,0,0,0,265.27,300.47Zm0,6.65a2.33,2.33,0,1,1,2.32-2.33A2.33,2.33,0,0,1,265.27,307.12Zm40.07-6.65a4.33,4.33,0,1,0,4.32,4.32A4.32,4.32,0,0,0,305.34,300.47Zm0,6.65a2.33,2.33,0,1,1,2.32-2.33A2.32,2.32,0,0,1,305.34,307.12ZM166.48,386.41q-.19,1-.36,2a2.32,2.32,0,0,1-.76,4.39c-.12.7-.23,1.37-.34,2h.07a4.32,4.32,0,0,0,1.39-8.41Zm38.68-.23a4.32,4.32,0,1,0,4.33,4.32A4.33,4.33,0,0,0,205.16,386.18Zm0,6.64a2.32,2.32,0,1,1,2.33-2.32A2.32,2.32,0,0,1,205.16,392.82Zm40.07-6.64a4.32,4.32,0,1,0,4.33,4.32A4.33,4.33,0,0,0,245.23,386.18Zm0,6.64a2.32,2.32,0,1,1,2.33-2.32A2.32,2.32,0,0,1,245.23,392.82Zm40.07-6.64a4.32,4.32,0,1,0,4.33,4.32A4.33,4.33,0,0,0,285.3,386.18Zm0,6.64a2.32,2.32,0,1,1,2.33-2.32A2.32,2.32,0,0,1,285.3,392.82Zm40.07-6.64a4.32,4.32,0,1,0,4.33,4.32A4.33,4.33,0,0,0,325.37,386.18Zm0,6.64a2.32,2.32,0,1,1,2.33-2.32A2.32,2.32,0,0,1,325.37,392.82ZM185.13,358.4a4.33,4.33,0,1,0,4.32,4.32A4.33,4.33,0,0,0,185.13,358.4Zm0,6.65a2.33,2.33,0,1,1,2.32-2.33A2.33,2.33,0,0,1,185.13,365.05Zm40.07-6.65a4.33,4.33,0,1,0,4.32,4.32A4.33,4.33,0,0,0,225.2,358.4Zm0,6.65a2.33,2.33,0,1,1,2.32-2.33A2.34,2.34,0,0,1,225.2,365.05Zm40.07-6.65a4.33,4.33,0,1,0,4.32,4.32A4.33,4.33,0,0,0,265.27,358.4Zm0,6.65a2.33,2.33,0,1,1,2.32-2.33A2.34,2.34,0,0,1,265.27,365.05Zm40.07-6.65a4.33,4.33,0,1,0,4.32,4.32A4.32,4.32,0,0,0,305.34,358.4Zm0,6.65a2.33,2.33,0,1,1,2.32-2.33A2.33,2.33,0,0,1,305.34,365.05Z" style="fill:#37474f"></path><path d="M122.19,349c15.18-7.44,23.15-18,46-81,3.17-8.71-51.58-45.74-55.44-36.6-4.86,11.51-23.42,56.48-24.2,60C82.05,320.85,111.88,354,122.19,349Z" style="fill:#eb9481"></path><path d="M113.8,231.48s16.14-14,21-19.94,24.65-27.71,36.16-32.71c12.27-5.33,30.18-10.3,33.63-4.17,5.6,9.94-18.33,16.26-21.29,19.67-5.78,6.65-9.82,11.6-11.5,17.78-2.89,10.62-.86,22.27.41,25.54,5.05,12.92,18.76-10.18,26.57-13.8,15.71-7.29,17.6,8.31,3.82,22.61-10.34,10.73-9.62,21.12-22.14,28.59-22,13.11-20.9,16.37-20.9,16.37Z" style="fill:#eb9481"></path><path d="M141.68,225.32c2.46-9.24,3.08-21.56,8.89-29.73,2.77-3.89,16.74-15.08,21.76-18.35,6.83-4.44,22.54-10.15,24.29-5.2,3.34,9.4-13.91,15.84-16.24,18.09-2.18,2.1-11.44,14.07-11.91,15-.91,1.67-6.94,41.16-6.94,41.16Z" style="fill:#eb9481"></path><path d="M134.43,230.79c2-9.36,2-21.69,7.42-30.14,2.57-4,16-15.88,20.83-19.39,6.6-4.77,22-11.24,24-6.38,3.8,9.22-13.11,16.5-15.34,18.86-2.07,2.2-10.73,14.62-11.16,15.51-.82,1.72-4.92,41.45-4.92,41.45Z" style="fill:#eb9481"></path><path d="M111.09,235.7c3.54-15.31,23.57-35.11,29.56-41.87,8.66-9.78,28.33-20.81,32-16.24,6.93,8.54-15.87,25.28-16.48,26.88-.26.69-3.92,13.73-4.11,21.85-.09,3.47,26.44,55.54-7.9,62.59Z" style="fill:#eb9481"></path><path d="M196.56,171.87c0-.08-.19-.05-.16,0,1.34,4.36-1.45,8-4.57,10.72a24.53,24.53,0,0,1-5.36,3.54,37.45,37.45,0,0,0-5.65,3c-3.49,2.53-6,6.28-8.58,9.65a52.37,52.37,0,0,0-3.89,5.25,15.56,15.56,0,0,0-1.76,5.81c-.79,5.28-.71,7.14-1.37,12.44a.12.12,0,0,0,.23,0c.5-4.74,2.72-15.47,3.94-17.56a48.81,48.81,0,0,1,4-5.39c2.65-3.41,5.21-7.41,8.9-9.8,1.93-1.25,4.16-1.95,6.17-3.06a21.72,21.72,0,0,0,5-3.74C196,180.19,198.8,175.51,196.56,171.87Z" style="fill:#263238"></path><path d="M185.62,173.59c-1.49-.86-4.26-.83-6.42.08-.08,0-.13.12.18.05,2.19-.51,5.53-.61,6.61,1.21a6,6,0,0,1-.3,6,17.21,17.21,0,0,1-4.75,4.72l-5.95,4.6c-2,1.5-4,2.82-5.5,4.82s-2.84,4-4.22,6-2.94,4.12-4.29,6.25c-1.21,1.9-1.4,4-1.7,6.15-.39,2.84-1.1,12.47-1.36,13.93,0,.15.21.17.23,0,.27-2.83,2.67-15.64,2.87-16.89a8.56,8.56,0,0,1,1.62-3.53c1.55-2.23,3.15-4.43,4.69-6.67s2.93-4.89,5-6.63,4.36-3.36,6.55-5c3.4-2.56,8.13-5.37,8.75-10C187.93,176.61,187.49,174.68,185.62,173.59Z" style="fill:#263238"></path><path d="M173.39,178.33a4.53,4.53,0,0,0-1.88-1.68c-.71-.33-.75-.12-.6,0,4.08,2.76,1.89,7.26.41,9.77a51.54,51.54,0,0,1-5.37,7,85.86,85.86,0,0,1-6.55,6.94,21.85,21.85,0,0,0-2.9,2.87,9.24,9.24,0,0,0-1.36,3.71q-1,4.93-2,9.87l-1,4.85a21.86,21.86,0,0,0-.62,4.69c.07,3.15,1.73,5.94,2.89,8.79,1.23,3,2.37,6.09,3.33,9.21,1.09,3.51,2,7.08,2.73,10.68A64.29,64.29,0,0,1,162,266.26a.11.11,0,1,0,.22,0c-.23-3.27-.35-6.54-.72-9.8a77.29,77.29,0,0,0-1.74-9.66,83.32,83.32,0,0,0-2.9-9.38c-.56-1.5-1.17-3-1.83-4.45a34.77,34.77,0,0,1-2-4.66c-.89-3.15.34-6.7,1-9.8q1-4.94,2-9.88a13.08,13.08,0,0,1,1.35-4.6,20.34,20.34,0,0,1,3.27-3.22c2.23-2.11,4.38-4.31,6.42-6.61C170.72,190,176,183.32,173.39,178.33Z" style="fill:#263238"></path><path d="M168.63,219a72.34,72.34,0,0,1-8.93,6.94,26.68,26.68,0,0,0-3.62,3.18,11.76,11.76,0,0,0-2.29,3.79c0,.14.16.21.22.08a9.62,9.62,0,0,1,3.18-3.7c1.27-1,2.69-1.74,4.05-2.61a17.69,17.69,0,0,0,3.88-3.06,50.78,50.78,0,0,0,3.68-4.47C168.87,219,168.73,218.86,168.63,219Z" style="fill:#263238"></path><path d="M98,238.59l68.31,62.62S138.2,348.4,122,350.14c-15.06,1.61-40.39-28.09-34.71-60.21Z" style="fill:#455a64"></path><path d="M125,270.32a4.33,4.33,0,1,0,4.32,4.32A4.32,4.32,0,0,0,125,270.32Zm0,6.65a2.33,2.33,0,1,1,2.32-2.33A2.32,2.32,0,0,1,125,277ZM107.3,247.09a2.33,2.33,0,1,1-2.74-2.51l-1.65-1.51a4.33,4.33,0,1,0,6,5.53ZM125,328.25a4.33,4.33,0,1,0,4.32,4.32A4.32,4.32,0,0,0,125,328.25Zm0,6.65a2.33,2.33,0,1,1,2.32-2.33A2.33,2.33,0,0,1,125,334.9Zm-20-34.43a4.33,4.33,0,1,0,4.33,4.32A4.33,4.33,0,0,0,105,300.47Zm0,6.65a2.33,2.33,0,1,1,2.33-2.33A2.32,2.32,0,0,1,105,307.12Zm40.07-6.65a4.33,4.33,0,1,0,4.33,4.32A4.33,4.33,0,0,0,145.05,300.47Zm0,6.65a2.33,2.33,0,1,1,2.33-2.33A2.32,2.32,0,0,1,145.05,307.12Z" style="fill:#37474f"></path><path d="M149.59,316.88c-7.1-6.52-13.89-13.42-20.66-20.33s-13.57-13.82-20.2-20.91c-3.75-4-7.51-8-11.14-12.12-.09-.1,0-.29.15-.19,7.08,6.51,13.91,13.38,20.71,20.24S132,297.39,138.73,304.4c3.78,4,7.51,8,11.14,12.12C150,316.72,149.79,317.07,149.59,316.88Z" style="fill:#263238"></path><path d="M159.18,294.65c2.72,2.06,5.35,4.21,7.95,6.4-2,3.84-4.16,7.56-6.42,11.23-6.63,10.42-13.87,20.8-23.47,28.72,8.19-9.25,15.07-19.47,21.86-29.75,2.27-3.42,4.49-6.89,6.69-10.35l.12.78c-2.29-2.3-4.55-4.63-6.73-7Z" style="fill:#263238"></path><path d="M153.54,322.65a39.52,39.52,0,0,1-8.19,14.06c2.48-4.88,5.29-9.43,8.19-14.06Z" style="fill:#263238"></path><path d="M295.57,196.59C353.74,239.37,401.24,304.43,392.94,328c-8.8,25-59.74-12.6-62-16.18-7.32-11.77-34.42-50.82-60.55-95S281.18,186,295.57,196.59Z" style="fill:#f7a9a0"></path><path d="M324.3,311.25C313.76,298,281,238.42,267.17,212.9c-12.44-22.91-6.5-37.08,16.08-25.25,41.57,21.78,91.64,73.37,112.28,115.12,19.88,40.22-14.19,53.54-31.45,43.29C339.32,331.35,332.75,321.86,324.3,311.25Z" style="fill:#455a64"></path><path d="M285.3,212.39a4.33,4.33,0,1,0,4.33,4.33A4.33,4.33,0,0,0,285.3,212.39Zm0,6.65a2.33,2.33,0,1,1,2.33-2.32A2.32,2.32,0,0,1,285.3,219Zm41.6-.57a2.29,2.29,0,0,1-1.53.57,2.32,2.32,0,0,1-2-3.56l-1.53-1.3a4.32,4.32,0,0,0,6.53,5.61C327.91,219.34,327.4,218.9,326.9,218.47Zm-61.63-33.86a4.26,4.26,0,0,0-.8.08,7.91,7.91,0,0,0-3.39,5.33,4.32,4.32,0,1,0,4.19-5.41Zm0,6.65a2.33,2.33,0,1,1,2.32-2.32A2.33,2.33,0,0,1,265.27,191.26Zm60.1,79.06a4.33,4.33,0,1,0,4.33,4.32A4.33,4.33,0,0,0,325.37,270.32Zm0,6.65a2.33,2.33,0,1,1,2.33-2.33A2.32,2.32,0,0,1,325.37,277Zm40.08-6.65a4.33,4.33,0,1,0,4.32,4.32A4.33,4.33,0,0,0,365.45,270.32Zm0,6.65a2.33,2.33,0,1,1,2.32-2.33A2.33,2.33,0,0,1,365.45,277Zm-60.11-34.43a4.33,4.33,0,1,0,4.32,4.33A4.32,4.32,0,0,0,305.34,242.54Zm0,6.65a2.33,2.33,0,1,1,2.32-2.32A2.32,2.32,0,0,1,305.34,249.19Zm40.07-6.65a4.33,4.33,0,1,0,4.32,4.33A4.33,4.33,0,0,0,345.41,242.54Zm0,6.65a2.33,2.33,0,1,1,2.32-2.32A2.32,2.32,0,0,1,345.41,249.19Zm20,79.06a4.33,4.33,0,1,0,4.32,4.32A4.33,4.33,0,0,0,365.45,328.25Zm0,6.65a2.33,2.33,0,1,1,2.32-2.33A2.33,2.33,0,0,1,365.45,334.9Zm-20-34.43a4.33,4.33,0,1,0,4.32,4.32A4.33,4.33,0,0,0,345.41,300.47Zm0,6.65a2.33,2.33,0,1,1,2.32-2.33A2.32,2.32,0,0,1,345.41,307.12Zm40.07-6.65a4.33,4.33,0,1,0,4.33,4.32A4.33,4.33,0,0,0,385.48,300.47Zm0,6.65a2.33,2.33,0,1,1,2.33-2.33A2.32,2.32,0,0,1,385.48,307.12Z" style="fill:#37474f"></path><path d="M341.34,330.09c-26.76-26.81-49.61-75-67.74-101.92,15.65,28.4,29.87,59.22,50.65,84.18C336.81,327.43,341.34,330.09,341.34,330.09Z" style="fill:#263238"></path><path d="M285,246.93a55.58,55.58,0,0,0-10.65-10.69A37.39,37.39,0,0,0,285,246.93Z" style="fill:#263238"></path><path d="M237.12,211.88C247.2,214,264,198.16,270.39,185.56c.43-.87-1.13-9.79-2.51-20.73-.82-6.64-1.57-14.05-1.76-20.86,0-1.4-42.44,11.6-42.44,11.6s4.61,14.17,4.88,26.05a14.87,14.87,0,0,1-.21,2.8c0,.13,0,.29,0,.47C227.59,190.22,227.37,209.86,237.12,211.88Z" style="fill:#eb9481"></path><path d="M263.49,144.22c-1.65,11.57-8,39.61-30.8,40.78a26,26,0,0,1-4.38-.11,2.12,2.12,0,0,1,.05-.47,17.86,17.86,0,0,0,.22-2.8c-.28-11.9-4.9-26.06-4.9-26.06S254.27,146.18,263.49,144.22Z" style="fill:#263238"></path><path d="M273.7,93.29c4.44,15.21-4.08,58.9-15,68.54-15.8,14-41.4,15-53.2-3.91-11.44-18.35.67-75.09,12.82-83.82C236.24,61.24,267.13,70.82,273.7,93.29Z" style="fill:#eb9481"></path><path d="M273.7,93.29c4.44,15.21-4.08,58.9-15,68.54-15.8,14-41.4,15-53.2-3.91-11.44-18.35.67-75.09,12.82-83.82C236.24,61.24,267.13,70.82,273.7,93.29Z" style="fill:#eb9481"></path><path d="M238.69,120.47c0-.11.21.18.18.3-.59,3-.77,6.43,1.75,7.86.07.05,0,.2-.06.17C237.37,127.79,237.65,123.17,238.69,120.47Z" style="fill:#263238"></path><path d="M241.86,117.82c4.83.44,3.59,10.07-.88,9.66S237.81,117.45,241.86,117.82Z" style="fill:#263238"></path><path d="M220.36,118.25c0-.12-.25.11-.27.23-.28,3-1.12,6.38-3.94,7-.09,0-.1.17,0,.17C219.5,125.63,220.56,121.13,220.36,118.25Z" style="fill:#263238"></path><path d="M218.09,114.79c-4.75-1-6.35,8.6-2,9.5S222.07,115.61,218.09,114.79Z" style="fill:#263238"></path><path d="M247.12,113.32a39.64,39.64,0,0,1-3.89-.85c-1.49-.35-2.72-.47-3.81-1.63a2.06,2.06,0,0,1,0-2.51c1.29-1.45,3.22-1.49,5-1.15a7.45,7.45,0,0,1,4.67,2.69C250.39,111.34,248.9,113.54,247.12,113.32Z" style="fill:#263238"></path><path d="M214.41,110.26a37.67,37.67,0,0,0,4,.3c1.53.1,2.74.33,4.12-.47a2,2,0,0,0,.69-2.4c-.81-1.77-2.65-2.35-4.48-2.55a7.49,7.49,0,0,0-5.25,1.23C211.84,107.43,212.64,110,214.41,110.26Z" style="fill:#263238"></path><path d="M237.57,148c-.77.64-1.57,1.55-2.66,1.55a7.94,7.94,0,0,1-3.16-1c-.09,0-.2.05-.14.14a4,4,0,0,0,3.67,1.94,3.19,3.19,0,0,0,2.57-2.45C237.91,148,237.69,147.91,237.57,148Z" style="fill:#263238"></path><path d="M234.91,144.26c-5.89-1.36-12.86-1.84-12.89-2.17l1.1-6.89c-.87.35-5.33,1.93-5.16.73,1.41-9.93,3-21,6.49-30.55a.28.28,0,0,1,.54.12c-1,9.6-3.65,19-4.78,28.58,1.41-.41,3.73-1.19,4.93-1.07.32.13-1.09,7.82-1.07,7.89A43.53,43.53,0,0,1,235,143.52C235.37,143.77,235.2,144.32,234.91,144.26Z" style="fill:#263238"></path><path d="M276.88,127.78c-11.64,1-18-12.76-15.42-24,0,0-30.91,4.65-32.82-20.19,0,0-7.25,11.37-21.29,12l-2.46,8.23c-3.19-.86-6.23-9.31,1.42-16.53,0,0,.33-12.4,9.33-20a17,17,0,0,1,18.18-2.87,25.64,25.64,0,0,1,18.59-4.92c11.44,1.26,16.32,11.59,16.32,11.59s15.39,2.66,18.19,13.52a22.63,22.63,0,0,1-2.7,18.26s3.92,4.21,2.12,13.55C285.19,122.41,280.37,127.48,276.88,127.78Z" style="fill:#263238"></path><path d="M229.29,81.38a29.31,29.31,0,0,0,0,6.07,24.75,24.75,0,0,0,1.23,5.86,15.69,15.69,0,0,0,7.32,8.8c3.38,2.08,7.52,2.35,11.47,2.67,2-.1,4,0,6-.26s4-.53,6.07-.73c-2,.52-4,.95-6,1.42s-4.08.44-6.14.67c-4.09-.1-8.41-.37-12.16-2.52a16.41,16.41,0,0,1-7.68-9.72A24.73,24.73,0,0,1,229.29,81.38Z" style="fill:#263238"></path><path d="M213.57,96a32,32,0,0,0,9.31-5.22A19.69,19.69,0,0,0,226.44,87,24.14,24.14,0,0,0,229,82.21a13.36,13.36,0,0,1-1.58,5.33,14.62,14.62,0,0,1-3.58,4.36A17.94,17.94,0,0,1,219,94.77,16.66,16.66,0,0,1,213.57,96Z" style="fill:#263238"></path><path d="M264.56,129.52s10.34-13.84,16.65-10.11-1.78,24-9.41,26.58a7.66,7.66,0,0,1-10.14-4.45Z" style="fill:#eb9481"></path><path d="M278.75,125.17c.12,0,.14.16,0,.2-5.35,2-8.29,6.79-10.4,11.81,1.63-1.91,3.81-2.91,6.37-1,.13.11,0,.32-.16.28a4.72,4.72,0,0,0-5.24,1.48,23.56,23.56,0,0,0-2.62,4.12c-.26.47-1.11.19-.91-.35l.05-.12C266,134.88,271.49,125.62,278.75,125.17Z" style="fill:#263238"></path><path d="M228.25,180.53l10.64,24.8,30.28-32.13,9,9.93s-29.23,50.64-29.46,48.39L238,210.28l-14.5,15.22.43-37.49Z" style="fill:#dbdbdb"></path><path d="M222.65,207c.28-6.19.38-12.43.95-18.6,0-.21.36-.32.42-.06,1.36,5.94.17,29.6.31,35.26l.06-.07c.61-.65,13.46-13.41,13.59-13.21,2.29,3.36,10.14,18.82,10.68,20.23,4.62-8,22.37-37.3,27.88-44.93a.21.21,0,0,1,.37.2c-4.05,8.48-27.52,47.88-27.89,47.78-.25.2-10-18.85-11.19-22.46-2.17,2.76-15.1,17.13-15.17,16.21A194.56,194.56,0,0,1,222.65,207Z" style="fill:#263238"></path><path d="M377.81,349c-15.18-7.44-23.15-18-46-81-3.17-8.71,51.58-45.74,55.44-36.6,4.86,11.51,23.42,56.48,24.2,60C418,320.85,388.12,354,377.81,349Z" style="fill:#eb9481"></path><path d="M386.2,231.48s-16.14-14-20.95-19.94-24.65-27.71-36.16-32.71c-12.27-5.33-30.18-10.3-33.63-4.17-5.6,9.94,18.33,16.26,21.29,19.67,5.78,6.65,9.82,11.6,11.5,17.78,2.89,10.62.86,22.27-.41,25.54-5,12.92-18.76-10.18-26.57-13.8-15.71-7.29-17.6,8.31-3.82,22.61,10.34,10.73,9.62,21.12,22.14,28.59,22,13.11,20.9,16.37,20.9,16.37Z" style="fill:#eb9481"></path><path d="M358.32,225.32c-2.46-9.24-3.08-21.56-8.89-29.73-2.77-3.89-16.74-15.08-21.76-18.35-6.83-4.44-22.54-10.15-24.29-5.2-3.34,9.4,13.91,15.84,16.24,18.09,2.18,2.1,11.44,14.07,11.91,15,.91,1.67,6.94,41.16,6.94,41.16Z" style="fill:#eb9481"></path><path d="M365.57,230.79c-2-9.36-2-21.69-7.42-30.14-2.57-4-16-15.88-20.83-19.39-6.6-4.77-22-11.24-24-6.38-3.8,9.22,13.11,16.5,15.34,18.86,2.07,2.2,10.73,14.62,11.16,15.51.82,1.72,4.92,41.45,4.92,41.45Z" style="fill:#eb9481"></path><path d="M388.91,235.7c-3.54-15.31-23.57-35.11-29.56-41.87-8.66-9.78-28.33-20.81-32-16.24-6.93,8.54,15.87,25.28,16.48,26.88.26.69,3.92,13.73,4.11,21.85.09,3.47-26.44,55.54,7.9,62.59Z" style="fill:#eb9481"></path><path d="M303.44,171.87c.05-.08.19-.05.16,0-1.34,4.36,1.45,8,4.57,10.72a24.53,24.53,0,0,0,5.36,3.54,37.45,37.45,0,0,1,5.65,3c3.49,2.53,6,6.28,8.58,9.65a52.37,52.37,0,0,1,3.89,5.25,15.56,15.56,0,0,1,1.76,5.81c.79,5.28.71,7.14,1.37,12.44a.12.12,0,0,1-.23,0c-.5-4.74-2.72-15.47-3.94-17.56a48.81,48.81,0,0,0-4-5.39c-2.65-3.41-5.21-7.41-8.9-9.8-1.93-1.25-4.16-1.95-6.17-3.06a21.72,21.72,0,0,1-5-3.74C304,180.19,301.2,175.51,303.44,171.87Z" style="fill:#263238"></path><path d="M314.38,173.59c1.49-.86,4.26-.83,6.42.08.08,0,.13.12-.18.05-2.19-.51-5.53-.61-6.61,1.21a6,6,0,0,0,.3,6,17.21,17.21,0,0,0,4.75,4.72l5.95,4.6c1.95,1.5,4,2.82,5.5,4.82s2.84,4,4.22,6,2.94,4.12,4.29,6.25c1.21,1.9,1.4,4,1.7,6.15.39,2.84,1.1,12.47,1.36,13.93,0,.15-.21.17-.23,0-.27-2.83-2.67-15.64-2.87-16.89a8.56,8.56,0,0,0-1.62-3.53c-1.55-2.23-3.15-4.43-4.69-6.67s-2.93-4.89-5-6.63-4.36-3.36-6.55-5c-3.4-2.56-8.13-5.37-8.75-10C312.07,176.61,312.51,174.68,314.38,173.59Z" style="fill:#263238"></path><path d="M326.61,178.33a4.53,4.53,0,0,1,1.88-1.68c.71-.33.75-.12.6,0-4.08,2.76-1.89,7.26-.41,9.77a51.54,51.54,0,0,0,5.37,7,85.86,85.86,0,0,0,6.55,6.94,21.85,21.85,0,0,1,2.9,2.87,9.24,9.24,0,0,1,1.36,3.71q1,4.93,2,9.87l1,4.85a21.86,21.86,0,0,1,.62,4.69c-.07,3.15-1.73,5.94-2.89,8.79-1.23,3-2.37,6.09-3.33,9.21-1.09,3.51-2,7.08-2.73,10.68A64.29,64.29,0,0,0,338,266.26a.11.11,0,1,1-.22,0c.23-3.27.35-6.54.72-9.8a77.29,77.29,0,0,1,1.74-9.66,83.32,83.32,0,0,1,2.9-9.38c.56-1.5,1.17-3,1.83-4.45a34.77,34.77,0,0,0,2-4.66c.89-3.15-.34-6.7-1-9.8q-1-4.94-2-9.88a13.08,13.08,0,0,0-1.35-4.6,20.34,20.34,0,0,0-3.27-3.22c-2.23-2.11-4.38-4.31-6.42-6.61C329.28,190,324.05,183.32,326.61,178.33Z" style="fill:#263238"></path><path d="M331.37,219a72.34,72.34,0,0,0,8.93,6.94,26.68,26.68,0,0,1,3.62,3.18,11.76,11.76,0,0,1,2.29,3.79c.05.14-.16.21-.22.08a9.62,9.62,0,0,0-3.18-3.7c-1.27-1-2.69-1.74-4.05-2.61a17.69,17.69,0,0,1-3.88-3.06,50.78,50.78,0,0,1-3.68-4.47C331.13,219,331.27,218.86,331.37,219Z" style="fill:#263238"></path><path d="M402,238.59l-68.31,62.62S361.8,348.4,378,350.14c15.06,1.61,40.39-28.09,34.71-60.21Z" style="fill:#455a64"></path><path d="M367,270.62l-1.88,1.72.3,0a2.33,2.33,0,1,1-2.33,2.32,2.52,2.52,0,0,1,.05-.48l-1.87,1.71h0a4.33,4.33,0,1,0,5.73-5.26ZM409,272h0a4.25,4.25,0,0,0-3.42-1.71,4.33,4.33,0,1,0,4.19,5.37h0ZM405.52,277a2.33,2.33,0,1,1,2.32-2.33A2.33,2.33,0,0,1,405.52,277Zm-40.07,51.28a4.33,4.33,0,1,0,4.32,4.32A4.33,4.33,0,0,0,365.45,328.25Zm0,6.65a2.33,2.33,0,1,1,2.32-2.33A2.33,2.33,0,0,1,365.45,334.9Zm40.07-6.65a4.31,4.31,0,0,0-3.79,6.4c.5-.68,1-1.38,1.46-2.1a2.31,2.31,0,0,1,1.31-2.06c.44-.73.88-1.47,1.29-2.23Zm-60.11-27.78a4.33,4.33,0,1,0,4.32,4.32A4.33,4.33,0,0,0,345.41,300.47Zm0,6.65a2.33,2.33,0,1,1,2.32-2.33A2.32,2.32,0,0,1,345.41,307.12Zm40.07-6.65a4.33,4.33,0,1,0,4.33,4.32A4.33,4.33,0,0,0,385.48,300.47Zm0,6.65a2.33,2.33,0,1,1,2.33-2.33A2.32,2.32,0,0,1,385.48,307.12Z" style="fill:#37474f"></path><path d="M350.41,316.88c7.1-6.52,13.89-13.42,20.66-20.33s13.57-13.82,20.2-20.91c3.75-4,7.51-8,11.14-12.12.09-.1,0-.29-.15-.19-7.08,6.51-13.91,13.38-20.71,20.24S368,297.39,361.27,304.4c-3.78,4-7.51,8-11.14,12.12C350,316.72,350.21,317.07,350.41,316.88Z" style="fill:#263238"></path><path d="M340.82,294.65c-2.18,2.4-4.44,4.73-6.73,7l.12-.78c2.2,3.46,4.42,6.93,6.69,10.35,6.79,10.28,13.67,20.5,21.86,29.75-9.6-7.92-16.84-18.3-23.47-28.72-2.26-3.67-4.44-7.39-6.42-11.23,2.6-2.19,5.23-4.34,7.95-6.4Z" style="fill:#263238"></path><path d="M346.46,322.65c2.9,4.63,5.71,9.18,8.19,14.06a39.52,39.52,0,0,1-8.19-14.06Z" style="fill:#263238"></path></g><g id="freepik--Sign--inject-5"><circle cx="250" cy="262.92" r="87.47" transform="translate(-38.11 483.42) rotate(-83.87)" style="fill:#FF725E"></circle><path d="M250,342.4a79.52,79.52,0,1,1,18.68-2.24A79.61,79.61,0,0,1,250,342.4Zm0-157a77.48,77.48,0,1,0,75.3,59.27A77.65,77.65,0,0,0,250,185.44Z" style="fill:#fff"></path><rect x="184.11" y="252.38" width="131.78" height="21.08" style="fill:#fff"></rect><path d="M196.45,242V225.43a1.53,1.53,0,0,1,1.55-1.55h3.32a9.84,9.84,0,0,1,0,19.68H198A1.54,1.54,0,0,1,196.45,242Zm3.12-1.57h1.75a6.72,6.72,0,0,0,0-13.44h-1.75Z" style="fill:#fff"></path><path d="M231.76,226.33a10.32,10.32,0,0,1,0,14.22,9.2,9.2,0,0,1-6.72,3,9.49,9.49,0,0,1-6.89-3,10.48,10.48,0,0,1,0-14.22,9.38,9.38,0,0,1,6.89-3A9.09,9.09,0,0,1,231.76,226.33Zm-.37,7.11a7.26,7.26,0,0,0-1.91-4.92,6.05,6.05,0,0,0-9,0,7.16,7.16,0,0,0-1.91,4.92,7,7,0,0,0,1.91,4.89,6,6,0,0,0,9,0A7.12,7.12,0,0,0,231.39,233.44Z" style="fill:#fff"></path><path d="M251.66,242a1.54,1.54,0,1,1-3.07,0V225.65a1.52,1.52,0,0,1,2.76-1l9.08,12.56V225.68a1.53,1.53,0,0,1,1.52-1.52,1.55,1.55,0,0,1,1.54,1.52V242a1.56,1.56,0,0,1-1.54,1.55,1.54,1.54,0,0,1-1.15-.56,1.07,1.07,0,0,1-.15-.17l-9-12.48Z" style="fill:#fff"></path><path d="M284.35,226.33a10.32,10.32,0,0,1,0,14.22,9.2,9.2,0,0,1-6.72,3,9.45,9.45,0,0,1-6.88-3,10.45,10.45,0,0,1,0-14.22,9.34,9.34,0,0,1,6.88-3A9.09,9.09,0,0,1,284.35,226.33Zm-.36,7.11a7.26,7.26,0,0,0-1.92-4.92,6.05,6.05,0,0,0-9,0,7.16,7.16,0,0,0-1.91,4.92,7,7,0,0,0,1.91,4.89,6,6,0,0,0,9,0A7.13,7.13,0,0,0,284,233.44Z" style="fill:#fff"></path><path d="M303.21,227h-4.47v15a1.52,1.52,0,0,1-1.54,1.55,1.54,1.54,0,0,1-1.55-1.55V227h-4.44a1.57,1.57,0,0,1-1.55-1.57,1.53,1.53,0,0,1,1.55-1.55h12a1.55,1.55,0,0,1,1.55,1.55A1.59,1.59,0,0,1,303.21,227Z" style="fill:#fff"></path><path d="M207.39,303.13V286.54a1.52,1.52,0,0,1,1.54-1.54h9.2a1.55,1.55,0,0,1,1.54,1.54,1.58,1.58,0,0,1-1.54,1.58h-7.62v5.14h6.55a1.58,1.58,0,0,1,1.55,1.55,1.57,1.57,0,0,1-1.55,1.57h-6.55v5.17h7.62a1.57,1.57,0,0,1,0,3.13H209c-.06,0-.06,0-.06,0l0,0A1.54,1.54,0,0,1,207.39,303.13Z" style="fill:#fff"></path><path d="M227.15,303.13a1.54,1.54,0,1,1-3.07,0V286.77a1.53,1.53,0,0,1,.62-1.29,1.55,1.55,0,0,1,2.14.33l9.08,12.57V286.8a1.53,1.53,0,0,1,1.52-1.52A1.55,1.55,0,0,1,239,286.8v16.33a1.56,1.56,0,0,1-1.54,1.55,1.52,1.52,0,0,1-1.15-.57.59.59,0,0,1-.15-.17l-9-12.48Z" style="fill:#fff"></path><path d="M257.48,288.12H253v15a1.53,1.53,0,0,1-1.55,1.55,1.54,1.54,0,0,1-1.54-1.55v-15h-4.44a1.56,1.56,0,0,1-1.55-1.58,1.52,1.52,0,0,1,1.55-1.54h12a1.53,1.53,0,0,1,1.54,1.54A1.58,1.58,0,0,1,257.48,288.12Z" style="fill:#fff"></path><path d="M263.66,303.13V286.54a1.52,1.52,0,0,1,1.55-1.54h9.19a1.56,1.56,0,0,1,1.55,1.54,1.58,1.58,0,0,1-1.55,1.58h-7.62v5.14h6.55a1.58,1.58,0,0,1,1.55,1.55,1.57,1.57,0,0,1-1.55,1.57h-6.55v5.17h7.62a1.57,1.57,0,0,1,0,3.13h-9.11c-.05,0-.05,0-.05,0l0,0A1.55,1.55,0,0,1,263.66,303.13Z" style="fill:#fff"></path><path d="M293.91,302.34a1.55,1.55,0,0,1-1,2,2.35,2.35,0,0,1-.61.08h0a2.06,2.06,0,0,1-1.1-.3,2.87,2.87,0,0,1-.9-1,7.59,7.59,0,0,1-.59-3.37,2.35,2.35,0,0,0-.34-1.21,2.54,2.54,0,0,0-.84-.82,5.53,5.53,0,0,0-1.57-.67h-3.32v6.1a1.57,1.57,0,0,1-1.58,1.55,1.54,1.54,0,0,1-1.54-1.55V286.54A1.52,1.52,0,0,1,282,285h5a6,6,0,0,1,6,6,5.94,5.94,0,0,1-2.19,4.61,4.24,4.24,0,0,1,1,1,5.29,5.29,0,0,1,.93,3,7.43,7.43,0,0,0,.11,1.66A1.51,1.51,0,0,1,293.91,302.34ZM290,291a2.89,2.89,0,0,0-2.89-2.92h-3.46v5.79h3.46A2.88,2.88,0,0,0,290,291Z" style="fill:#fff"></path></g></svg>
